<svg width="138" height="202" viewBox="0 0 138 202" fill="none" xmlns="http://www.w3.org/2000/svg">
<path d="M1 9C1 4.58173 4.58172 1 9 1H129C133.418 1 137 4.58172 137 9V193C137 197.418 133.418 201 129 201H9C4.58172 201 1 197.418 1 193V9Z" fill="white"/>
<path d="M25.5437 107.224C27.9277 107.224 29.6077 105.944 29.6077 103.848C29.6077 101.56 27.7197 100.968 25.9437 100.408C24.2477 99.896 23.8157 99.528 23.8157 98.84C23.8157 98.2 24.3597 97.72 25.2877 97.72C26.4237 97.72 27.0317 98.312 27.4317 99.16L29.2877 98.088C28.5357 96.52 27.1277 95.576 25.2877 95.576C23.3677 95.576 21.6077 96.792 21.6077 98.904C21.6077 101.032 23.2717 101.752 24.9837 102.248C26.6477 102.728 27.3997 103.048 27.3997 103.88C27.3997 104.504 26.9357 105.064 25.6077 105.064C24.2157 105.064 23.4317 104.392 23.0317 103.352L21.1437 104.456C21.7517 106.12 23.2557 107.224 25.5437 107.224Z" fill="black"/>
<path d="M35.3998 98.776C34.3278 98.776 33.4958 99.176 33.0158 99.896V95.8H30.9518V107H33.0158V102.68C33.0158 101.288 33.7678 100.696 34.7758 100.696C35.7038 100.696 36.3598 101.256 36.3598 102.344V107H38.4238V102.088C38.4238 99.96 37.0958 98.776 35.3998 98.776Z" fill="black"/>
<path d="M45.4662 99V103.32C45.4662 104.712 44.7142 105.304 43.7062 105.304C42.7782 105.304 42.1222 104.744 42.1222 103.656V99H40.0582V103.912C40.0582 106.04 41.3862 107.224 43.0822 107.224C44.1542 107.224 44.9862 106.824 45.4662 106.104V107H47.5302V99H45.4662Z" fill="black"/>
<path d="M58.1566 95.416C55.6286 95.416 54.3966 96.552 54.3966 98.76V99H52.0286V98.92C52.0286 97.832 52.6526 97.48 53.7246 97.56V95.576C51.1806 95.416 49.9646 96.712 49.9646 98.92V99H48.8126V100.984H49.9646V107H52.0286V100.984H54.3966V107H56.4606V100.984H57.8046V99H56.4606V98.76C56.4606 97.672 57.1006 97.224 58.1566 97.224C58.3646 97.224 58.5886 97.224 58.8126 97.24V107H60.8766V95.752C60.0126 95.576 59.1806 95.416 58.1566 95.416Z" fill="black"/>
<path d="M64.5083 103.848H70.5403C70.5883 103.576 70.6203 103.304 70.6203 103C70.6203 100.648 68.9403 98.776 66.5723 98.776C64.0603 98.776 62.3483 100.616 62.3483 103C62.3483 105.384 64.0443 107.224 66.7323 107.224C68.2683 107.224 69.4683 106.6 70.2203 105.512L68.5563 104.552C68.2043 105.016 67.5643 105.352 66.7643 105.352C65.6763 105.352 64.7963 104.904 64.5083 103.848ZM64.4763 102.248C64.7163 101.224 65.4683 100.632 66.5723 100.632C67.4363 100.632 68.3003 101.096 68.5563 102.248H64.4763Z" fill="black"/>
<path d="M79.8692 107.224C81.4372 107.224 82.7972 106.392 83.4852 105.144L81.6932 104.12C81.3732 104.776 80.6852 105.176 79.8532 105.176C78.6212 105.176 77.7092 104.264 77.7092 103C77.7092 101.72 78.6212 100.808 79.8532 100.808C80.6692 100.808 81.3572 101.224 81.6772 101.88L83.4532 100.84C82.7972 99.608 81.4372 98.776 79.8692 98.776C77.4372 98.776 75.6452 100.616 75.6452 103C75.6452 105.384 77.4372 107.224 79.8692 107.224Z" fill="black"/>
<path d="M90.5318 99V99.944C89.9558 99.224 89.0918 98.776 87.9238 98.776C85.7958 98.776 84.0358 100.616 84.0358 103C84.0358 105.384 85.7958 107.224 87.9238 107.224C89.0918 107.224 89.9558 106.776 90.5318 106.056V107H92.5958V99H90.5318ZM88.3078 105.256C87.0438 105.256 86.0998 104.344 86.0998 103C86.0998 101.656 87.0438 100.744 88.3078 100.744C89.5878 100.744 90.5318 101.656 90.5318 103C90.5318 104.344 89.5878 105.256 88.3078 105.256Z" fill="black"/>
<path d="M96.5314 100.376V99H94.4674V107H96.5314V103.176C96.5314 101.496 97.8914 101.016 98.9634 101.144V98.84C97.9554 98.84 96.9474 99.288 96.5314 100.376Z" fill="black"/>
<path d="M105.938 95.8V99.944C105.362 99.208 104.514 98.776 103.346 98.776C101.202 98.776 99.4417 100.616 99.4417 103C99.4417 105.384 101.202 107.224 103.346 107.224C104.514 107.224 105.362 106.792 105.938 106.056V107H108.002V95.8H105.938ZM103.73 105.256C102.45 105.256 101.506 104.344 101.506 103C101.506 101.656 102.45 100.744 103.73 100.744C104.994 100.744 105.938 101.656 105.938 103C105.938 104.344 104.994 105.256 103.73 105.256Z" fill="black"/>
<path d="M111.731 101.272C111.731 100.84 112.147 100.616 112.659 100.616C113.251 100.616 113.699 100.92 113.939 101.432L115.699 100.472C115.075 99.368 113.955 98.776 112.659 98.776C111.011 98.776 109.619 99.688 109.619 101.32C109.619 104.136 113.747 103.496 113.747 104.664C113.747 105.128 113.299 105.352 112.643 105.352C111.843 105.352 111.299 104.968 111.075 104.312L109.283 105.32C109.859 106.552 111.043 107.224 112.643 107.224C114.355 107.224 115.859 106.392 115.859 104.664C115.859 101.72 111.731 102.456 111.731 101.272Z" fill="black"/>
<path d="M9 1.5H129V0.5H9V1.5ZM136.5 9V193H137.5V9H136.5ZM129 200.5H9V201.5H129V200.5ZM1.5 193V9H0.5V193H1.5ZM9 200.5C4.85786 200.5 1.5 197.142 1.5 193H0.5C0.5 197.694 4.30558 201.5 9 201.5V200.5ZM136.5 193C136.5 197.142 133.142 200.5 129 200.5V201.5C133.694 201.5 137.5 197.694 137.5 193H136.5ZM129 1.5C133.142 1.5 136.5 4.85786 136.5 9H137.5C137.5 4.30558 133.694 0.5 129 0.5V1.5ZM9 0.5C4.30558 0.5 0.5 4.30558 0.5 9H1.5C1.5 4.85787 4.85786 1.5 9 1.5V0.5Z" fill="#D2D2D2"/>
</svg>
