<svg width="138" height="202" viewBox="0 0 138 202" fill="none" xmlns="http://www.w3.org/2000/svg">
<path d="M1 9C1 4.58173 4.58172 1 9 1H129C133.418 1 137 4.58172 137 9V193C137 197.418 133.418 201 129 201H9C4.58172 201 1 197.418 1 193V9Z" fill="white"/>
<path d="M47.8794 104.984V103H46.0714V100.76L44.0074 101.384V103H42.6154V104.984H44.0074V108.312C44.0074 110.472 44.9834 111.32 47.8794 111V109.128C46.6954 109.192 46.0714 109.176 46.0714 108.312V104.984H47.8794Z" fill="black"/>
<path d="M52.8926 111.224C55.2446 111.224 57.1326 109.384 57.1326 107C57.1326 104.616 55.2446 102.776 52.8926 102.776C50.5406 102.776 48.6686 104.616 48.6686 107C48.6686 109.384 50.5406 111.224 52.8926 111.224ZM52.8926 109.208C51.6766 109.208 50.7326 108.296 50.7326 107C50.7326 105.704 51.6766 104.792 52.8926 104.792C54.1246 104.792 55.0686 105.704 55.0686 107C55.0686 108.296 54.1246 109.208 52.8926 109.208Z" fill="black"/>
<path d="M64.4886 105.272C64.4886 104.84 64.9046 104.616 65.4166 104.616C66.0086 104.616 66.4566 104.92 66.6966 105.432L68.4566 104.472C67.8326 103.368 66.7126 102.776 65.4166 102.776C63.7686 102.776 62.3766 103.688 62.3766 105.32C62.3766 108.136 66.5046 107.496 66.5046 108.664C66.5046 109.128 66.0566 109.352 65.4006 109.352C64.6006 109.352 64.0566 108.968 63.8326 108.312L62.0406 109.32C62.6166 110.552 63.8006 111.224 65.4006 111.224C67.1126 111.224 68.6166 110.392 68.6166 108.664C68.6166 105.72 64.4886 106.456 64.4886 105.272Z" fill="black"/>
<path d="M74.2856 104.984V103H72.4776V100.76L70.4136 101.384V103H69.0216V104.984H70.4136V108.312C70.4136 110.472 71.3896 111.32 74.2856 111V109.128C73.1016 109.192 72.4776 109.176 72.4776 108.312V104.984H74.2856Z" fill="black"/>
<path d="M81.5709 103V103.944C80.9949 103.224 80.1309 102.776 78.9629 102.776C76.8349 102.776 75.0749 104.616 75.0749 107C75.0749 109.384 76.8349 111.224 78.9629 111.224C80.1309 111.224 80.9949 110.776 81.5709 110.056V111H83.6349V103H81.5709ZM79.3469 109.256C78.0829 109.256 77.1389 108.344 77.1389 107C77.1389 105.656 78.0829 104.744 79.3469 104.744C80.6269 104.744 81.5709 105.656 81.5709 107C81.5709 108.344 80.6269 109.256 79.3469 109.256Z" fill="black"/>
<path d="M87.5705 104.376V103H85.5065V111H87.5705V107.176C87.5705 105.496 88.9305 105.016 90.0025 105.144V102.84C88.9945 102.84 87.9865 103.288 87.5705 104.376Z" fill="black"/>
<path d="M96.0044 104.984V103H94.1964V100.76L92.1324 101.384V103H90.7404V104.984H92.1324V108.312C92.1324 110.472 93.1084 111.32 96.0044 111V109.128C94.8204 109.192 94.1964 109.176 94.1964 108.312V104.984H96.0044Z" fill="black"/>
<path d="M33.352 92.224C35.416 92.224 37.224 91.184 38.168 89.584L36.264 88.48C35.736 89.456 34.632 90.064 33.352 90.064C31.16 90.064 29.72 88.544 29.72 86.4C29.72 84.24 31.16 82.72 33.352 82.72C34.632 82.72 35.72 83.328 36.264 84.32L38.168 83.216C37.208 81.616 35.4 80.576 33.352 80.576C29.96 80.576 27.528 83.12 27.528 86.4C27.528 89.664 29.96 92.224 33.352 92.224Z" fill="black"/>
<path d="M39.5534 92H41.6174V80.32H39.5534V92Z" fill="black"/>
<path d="M44.5305 83.04C45.2345 83.04 45.8105 82.464 45.8105 81.776C45.8105 81.088 45.2345 80.496 44.5305 80.496C43.8425 80.496 43.2665 81.088 43.2665 81.776C43.2665 82.464 43.8425 83.04 44.5305 83.04ZM43.5065 92H45.5705V84H43.5065V92Z" fill="black"/>
<path d="M51.2676 92.224C52.8356 92.224 54.1956 91.392 54.8836 90.144L53.0916 89.12C52.7716 89.776 52.0836 90.176 51.2516 90.176C50.0196 90.176 49.1076 89.264 49.1076 88C49.1076 86.72 50.0196 85.808 51.2516 85.808C52.0676 85.808 52.7556 86.224 53.0756 86.88L54.8516 85.84C54.1956 84.608 52.8356 83.776 51.2676 83.776C48.8356 83.776 47.0436 85.616 47.0436 88C47.0436 90.384 48.8356 92.224 51.2676 92.224Z" fill="black"/>
<path d="M63.3512 92L60.0392 87.952L63.2552 84H60.7913L58.0392 87.52V80.8H55.9753V92H58.0392V88.368L60.9512 92H63.3512Z" fill="black"/>
<rect x="69" y="79" width="42" height="16" rx="2" fill="#FF0000"/>
<path d="M81.1161 84.144V87.56L78.7161 84.144H77.8761V89.744H78.9801V86.32L81.3801 89.744H82.2201V84.144H81.1161Z" fill="white"/>
<path d="M84.0829 88.168H87.0989C87.1229 88.032 87.1389 87.896 87.1389 87.744C87.1389 86.568 86.2989 85.632 85.1149 85.632C83.8589 85.632 83.0029 86.552 83.0029 87.744C83.0029 88.936 83.8509 89.856 85.1949 89.856C85.9629 89.856 86.5629 89.544 86.9389 89L86.1069 88.52C85.9309 88.752 85.6109 88.92 85.2109 88.92C84.6669 88.92 84.2269 88.696 84.0829 88.168ZM84.0669 87.368C84.1869 86.856 84.5629 86.56 85.1149 86.56C85.5469 86.56 85.9789 86.792 86.1069 87.368H84.0669Z" fill="white"/>
<path d="M91.3208 89.744L89.8568 87.696L91.2568 85.744H90.0728L89.2648 86.872L88.4568 85.744H87.2648L88.6648 87.704L87.2008 89.744H88.3928L89.2648 88.528L90.1288 89.744H91.3208Z" fill="white"/>
<path d="M94.1239 86.736V85.744H93.2199V84.624L92.1879 84.936V85.744H91.4919V86.736H92.1879V88.4C92.1879 89.48 92.6759 89.904 94.1239 89.744V88.808C93.5319 88.84 93.2199 88.832 93.2199 88.4V86.736H94.1239Z" fill="white"/>
<path d="M98.3239 85.3333L100.124 87.1333L98.3239 88.9333M96.1239 87.1333H100.124H96.1239Z" stroke="white"/>
<path d="M9 1.5H129V0.5H9V1.5ZM136.5 9V193H137.5V9H136.5ZM129 200.5H9V201.5H129V200.5ZM1.5 193V9H0.5V193H1.5ZM9 200.5C4.85786 200.5 1.5 197.142 1.5 193H0.5C0.5 197.694 4.30558 201.5 9 201.5V200.5ZM136.5 193C136.5 197.142 133.142 200.5 129 200.5V201.5C133.694 201.5 137.5 197.694 137.5 193H136.5ZM129 1.5C133.142 1.5 136.5 4.85786 136.5 9H137.5C137.5 4.30558 133.694 0.5 129 0.5V1.5ZM9 0.5C4.30558 0.5 0.5 4.30558 0.5 9H1.5C1.5 4.85787 4.85786 1.5 9 1.5V0.5Z" fill="#D2D2D2"/>
</svg>
