<svg width="56" height="56" viewBox="0 0 56 56" fill="none" xmlns="http://www.w3.org/2000/svg">
<g clip-path="url(#clip0)">
<path fill-rule="evenodd" clip-rule="evenodd" d="M24.3254 1.5225C26.3554 -0.5075 29.6454 -0.5075 31.6754 1.5225L54.4779 24.3285C56.5079 26.3585 56.5079 29.645 54.4779 31.6715L31.6754 54.4775C29.6454 56.5075 26.3589 56.5075 24.3324 54.4775L1.52286 31.675C1.04008 31.1932 0.65706 30.6209 0.395727 29.9909C0.134394 29.3609 -0.00012207 28.6856 -0.00012207 28.0035C-0.00012207 27.3214 0.134394 26.6461 0.395727 26.0161C0.65706 25.3861 1.04008 24.8138 1.52286 24.332L24.3254 1.5225Z" fill="#FFE145"/>
<path d="M30.8994 25.024L35.6154 18.904V14.8H19.7754V19.444H29.6394L24.6714 25.924L26.5794 28.804H27.6594C30.2514 28.804 31.6914 30.208 31.6914 32.224C31.6914 34.276 30.2514 35.644 27.6594 35.644C25.2834 35.644 23.8794 34.6 23.2674 32.728L19.0194 35.176C20.4594 38.776 23.8794 40.504 27.6594 40.504C32.4114 40.504 36.6594 37.624 36.6594 32.224C36.6594 28.516 34.1754 25.996 30.8994 25.024Z" fill="black"/>
</g>
<defs>
<clipPath id="clip0">
<rect width="56" height="56" fill="white"/>
</clipPath>
</defs>
</svg>
