<svg width="56" height="56" viewBox="0 0 56 56" fill="none" xmlns="http://www.w3.org/2000/svg">
<g clip-path="url(#clip0)">
<path fill-rule="evenodd" clip-rule="evenodd" d="M24.3254 1.5225C26.3554 -0.5075 29.6454 -0.5075 31.6754 1.5225L54.4779 24.3285C56.5079 26.3585 56.5079 29.645 54.4779 31.6715L31.6754 54.4775C29.6454 56.5075 26.3589 56.5075 24.3324 54.4775L1.52286 31.675C1.04008 31.1932 0.65706 30.6209 0.395727 29.9909C0.134394 29.3609 -0.00012207 28.6856 -0.00012207 28.0035C-0.00012207 27.3214 0.134394 26.6461 0.395727 26.0161C0.65706 25.3861 1.04008 24.8138 1.52286 24.332L24.3254 1.5225Z" fill="#FFE145"/>
<path d="M28.2187 23.98H25.6267L25.9507 19.444H35.6347V14.8H21.3427L20.3347 28.804H27.9667C30.4147 28.804 31.8547 30.208 31.8547 32.224C31.8547 34.276 30.4147 35.644 27.8227 35.644C25.3027 35.644 23.8987 34.564 23.2867 32.62L19.0387 35.104C20.4787 38.776 23.8987 40.504 27.8227 40.504C32.5747 40.504 36.8227 37.624 36.8227 32.224C36.8227 26.824 32.8267 23.98 28.2187 23.98Z" fill="black"/>
</g>
<defs>
<clipPath id="clip0">
<rect width="56" height="56" fill="white"/>
</clipPath>
</defs>
</svg>
