<svg width="56" height="56" viewBox="0 0 56 56" fill="none" xmlns="http://www.w3.org/2000/svg">
<g clip-path="url(#clip0)">
<path fill-rule="evenodd" clip-rule="evenodd" d="M24.3254 1.5225C26.3554 -0.5075 29.6454 -0.5075 31.6754 1.5225L54.4779 24.3285C56.5079 26.3585 56.5079 29.645 54.4779 31.6715L31.6754 54.4775C29.6454 56.5075 26.3589 56.5075 24.3324 54.4775L1.52286 31.675C1.04008 31.1932 0.65706 30.6209 0.395727 29.9909C0.134394 29.3609 -0.00012207 28.6856 -0.00012207 28.0035C-0.00012207 27.3214 0.134394 26.6461 0.395727 26.0161C0.65706 25.3861 1.04008 24.8138 1.52286 24.332L24.3254 1.5225Z" fill="#FFE145"/>
<path d="M28.3108 22.972L33.8908 14.8H28.2028L20.3548 26.644C19.4188 28.048 18.8788 29.776 18.8788 31.72C18.8788 36.868 22.5868 40.504 27.9868 40.504C33.3868 40.504 37.1308 36.868 37.1308 31.72C37.1308 26.68 33.5308 23.116 28.3108 22.972ZM27.9868 35.824C25.6468 35.824 23.8108 34.276 23.8108 31.72C23.8108 29.164 25.6468 27.652 27.9868 27.652C30.3268 27.652 32.1988 29.2 32.1988 31.72C32.1988 34.276 30.3268 35.824 27.9868 35.824Z" fill="black"/>
</g>
<defs>
<clipPath id="clip0">
<rect width="56" height="56" fill="white"/>
</clipPath>
</defs>
</svg>
