<svg width="56" height="56" viewBox="0 0 56 56" fill="none" xmlns="http://www.w3.org/2000/svg">
<g clip-path="url(#clip0)">
<path fill-rule="evenodd" clip-rule="evenodd" d="M24.3254 1.5225C26.3554 -0.5075 29.6454 -0.5075 31.6754 1.5225L54.4779 24.3285C56.5079 26.3585 56.5079 29.645 54.4779 31.6715L31.6754 54.4775C29.6454 56.5075 26.3589 56.5075 24.3324 54.4775L1.52286 31.675C1.04008 31.1932 0.65706 30.6209 0.395727 29.9909C0.134394 29.3609 -0.00012207 28.6856 -0.00012207 28.0035C-0.00012207 27.3214 0.134394 26.6461 0.395727 26.0161C0.65706 25.3861 1.04008 24.8138 1.52286 24.332L24.3254 1.5225Z" fill="#FFE145"/>
<path d="M19.6438 14.8V19.552H30.4078L22.1278 40H27.3838L35.9158 19.012V14.8H19.6438Z" fill="black"/>
</g>
<defs>
<clipPath id="clip0">
<rect width="56" height="56" fill="white"/>
</clipPath>
</defs>
</svg>
