<svg width="138" height="202" viewBox="0 0 138 202" fill="none" xmlns="http://www.w3.org/2000/svg">
<path d="M1 9C1 4.58173 4.58172 1 9 1H129C133.418 1 137 4.58172 137 9V193C137 197.418 133.418 201 129 201H9C4.58172 201 1 197.418 1 193V9Z" fill="white"/>
<path d="M9 1.5H129V0.5H9V1.5ZM136.5 9V193H137.5V9H136.5ZM129 200.5H9V201.5H129V200.5ZM1.5 193V9H0.5V193H1.5ZM9 200.5C4.85786 200.5 1.5 197.142 1.5 193H0.5C0.5 197.694 4.30558 201.5 9 201.5V200.5ZM136.5 193C136.5 197.142 133.142 200.5 129 200.5V201.5C133.694 201.5 137.5 197.694 137.5 193H136.5ZM129 1.5C133.142 1.5 136.5 4.85786 136.5 9H137.5C137.5 4.30558 133.694 0.5 129 0.5V1.5ZM9 0.5C4.30558 0.5 0.5 4.30558 0.5 9H1.5C1.5 4.85787 4.85786 1.5 9 1.5V0.5Z" fill="#D2D2D2"/>
<rect x="7" y="7" width="124" height="188" stroke="black" stroke-width="4"/>
<path d="M54.5 148.736V199.5H43.5V148.736C43.5 138.654 40.9806 128.732 36.1706 119.872L34.3404 116.5H45.2025L47.2918 120.349C52.0222 129.063 54.5 138.821 54.5 148.736Z" fill="#FF0000" stroke="white"/>
<circle cx="40" cy="115" r="10" fill="#FF0000"/>
<circle cx="40" cy="115" r="6" fill="white"/>
<rect x="55.5" y="106.5" width="11" height="93" fill="#4CD964" stroke="white"/>
<circle cx="61" cy="100" r="10" fill="#4CD964"/>
<circle cx="61" cy="100" r="6" fill="white"/>
<path d="M88.0719 100.735L93.0468 92.5H104.114L99.4513 100.218C93.7492 109.657 90.7353 120.474 90.7353 131.502V199.5H79.5V131.502C79.5 120.656 82.4641 110.018 88.0719 100.735Z" fill="#FF7A50" stroke="white"/>
<circle cx="99" cy="89" r="10" fill="#FF7A50"/>
<circle cx="99" cy="89" r="6" fill="white"/>
<rect x="91.5" y="131.5" width="11" height="68" fill="#009065" stroke="white"/>
<circle cx="97" cy="126" r="10" fill="#009065"/>
<circle cx="97" cy="126" r="6" fill="white"/>
<rect x="67.5" y="146.5" width="11" height="53" fill="#047BFD" stroke="white"/>
<circle cx="73" cy="143" r="10" fill="#047BFD"/>
<circle cx="73" cy="143" r="6" fill="white"/>
<rect x="1" y="37" width="136" height="26" fill="black"/>
<circle cx="104" cy="50" r="16" fill="#FF0000"/>
<path d="M105.135 55.0452L109.062 51.1099L111.301 53.3541C111.749 53.8016 112 54.4085 112 55.0412C112 55.6739 111.749 56.2807 111.301 56.7283L110.748 57.2814C110.527 57.5036 110.264 57.6798 109.975 57.8001C109.685 57.9203 109.375 57.9822 109.061 57.9822C108.748 57.9822 108.437 57.9203 108.148 57.8001C107.858 57.6798 107.596 57.5036 107.374 57.2814L105.135 55.0452ZM111.296 43.2517L110.74 42.6985C110.293 42.2513 109.686 42 109.053 42C108.421 42 107.814 42.2513 107.366 42.6985L104 46.0727L100.626 42.6985C100.178 42.2513 99.5714 42 98.9387 42C98.306 42 97.6992 42.2513 97.2517 42.6985L96.6985 43.2517C96.2512 43.6992 96 44.3061 96 44.9388C96 45.5715 96.2512 46.1783 96.6985 46.6259L100.073 50L96.6985 53.3741C96.2512 53.8217 96 54.4285 96 55.0612C96 55.6939 96.2512 56.3008 96.6985 56.7483L97.2517 57.3015C97.6992 57.7487 98.306 58 98.9387 58C99.5714 58 100.178 57.7487 100.626 57.3015L111.301 46.6254C111.749 46.1778 112 45.571 112 44.9383C112 44.3056 111.749 43.6987 111.301 43.2512L111.296 43.2517Z" fill="white"/>
<path d="M33.9983 41.7294H30.3415L25.9991 49.419L21.6567 41.7294H18V59.0371H21.6567V48.9739L25.7934 56.3173H26.2048L30.3415 48.9739V59.0371H33.9983V41.7294Z" fill="white"/>
<path d="M40.4047 55.2294V52.1635H46.1184V48.4052H40.4047V45.5371H46.6898V41.7294H36.748V59.0371H46.804V55.2294H40.4047Z" fill="white"/>
<path d="M59.6089 41.7294H47.7245V45.5371H51.8383V59.0371H55.4951V45.5371H59.6089V41.7294Z" fill="white"/>
<path d="M69.6202 59.0371H73.5512L70.1458 52.6827C71.9056 51.7184 73.0941 49.7898 73.0941 47.6635C73.0941 44.375 70.6486 41.7294 67.6089 41.7294H61.2096V59.0371H64.8664V53.3503H66.6033L69.6202 59.0371ZM64.8664 45.4382H67.6089C68.6146 45.4382 69.4373 46.4025 69.4373 47.6635C69.4373 48.9244 68.6146 49.8887 67.6089 49.8887H64.8664V45.4382Z" fill="white"/>
<path d="M82.6809 59.3832C87.2747 59.3832 91 55.4766 91 50.3832C91 45.2898 87.2747 41.3832 82.6809 41.3832C78.0871 41.3832 74.3618 45.2898 74.3618 50.3832C74.3618 55.4766 78.0871 59.3832 82.6809 59.3832ZM82.6809 55.5261C80.0755 55.5261 78.0185 53.4739 78.0185 50.3832C78.0185 47.2926 80.0755 45.2404 82.6809 45.2404C85.2863 45.2404 87.3433 47.2926 87.3433 50.3832C87.3433 53.4739 85.2863 55.5261 82.6809 55.5261Z" fill="white"/>
</svg>
