<svg width="138" height="202" viewBox="0 0 138 202" fill="none" xmlns="http://www.w3.org/2000/svg">
<path d="M1 9C1 4.58173 4.58172 1 9 1H129C133.418 1 137 4.58172 137 9V193C137 197.418 133.418 201 129 201H9C4.58172 201 1 197.418 1 193V9Z" fill="white"/>
<path d="M9 1.5H129V0.5H9V1.5ZM136.5 9V193H137.5V9H136.5ZM129 200.5H9V201.5H129V200.5ZM1.5 193V9H0.5V193H1.5ZM9 200.5C4.85786 200.5 1.5 197.142 1.5 193H0.5C0.5 197.694 4.30558 201.5 9 201.5V200.5ZM136.5 193C136.5 197.142 133.142 200.5 129 200.5V201.5C133.694 201.5 137.5 197.694 137.5 193H136.5ZM129 1.5C133.142 1.5 136.5 4.85786 136.5 9H137.5C137.5 4.30558 133.694 0.5 129 0.5V1.5ZM9 0.5C4.30558 0.5 0.5 4.30558 0.5 9H1.5C1.5 4.85787 4.85786 1.5 9 1.5V0.5Z" fill="#D2D2D2"/>
<rect x="7" y="7" width="124" height="188" stroke="black" stroke-width="4"/>
<path d="M54.5 148.736V199.5H43.5V148.736C43.5 138.654 40.9806 128.732 36.1706 119.872L34.3404 116.5H45.2025L47.2918 120.349C52.0222 129.063 54.5 138.821 54.5 148.736Z" fill="#FF0000" stroke="white"/>
<circle cx="40" cy="115" r="10" fill="#FF0000"/>
<circle cx="40" cy="115" r="6" fill="white"/>
<rect x="55.5" y="106.5" width="11" height="93" fill="#4CD964" stroke="white"/>
<circle cx="61" cy="100" r="10" fill="#4CD964"/>
<circle cx="61" cy="100" r="6" fill="white"/>
<path d="M88.0719 100.735L93.0468 92.5H104.114L99.4513 100.218C93.7492 109.657 90.7353 120.474 90.7353 131.502V199.5H79.5V131.502C79.5 120.656 82.4641 110.018 88.0719 100.735Z" fill="#FF7A50" stroke="white"/>
<circle cx="99" cy="89" r="10" fill="#FF7A50"/>
<circle cx="99" cy="89" r="6" fill="white"/>
<rect x="91.5" y="131.5" width="11" height="68" fill="#009065" stroke="white"/>
<circle cx="97" cy="126" r="10" fill="#009065"/>
<circle cx="97" cy="126" r="6" fill="white"/>
<rect x="67.5" y="146.5" width="11" height="53" fill="#047BFD" stroke="white"/>
<circle cx="73" cy="143" r="10" fill="#047BFD"/>
<circle cx="73" cy="143" r="6" fill="white"/>
<rect x="1" y="36.9091" width="136" height="26.1818" fill="black"/>
<path d="M32.2927 41.7091H28.6942L24.4209 48.9469L20.1476 41.7091H16.5491V58H20.1476V48.528L24.2185 55.44H24.6233L28.6942 48.528V58H32.2927V41.7091Z" fill="white"/>
<path d="M38.5972 54.416V51.5301H44.22V47.9927H38.5972V45.2931H44.7823V41.7091H34.9987V58H44.8947V54.416H38.5972Z" fill="white"/>
<path d="M57.4958 41.7091H45.8005V45.2931H49.8489V58H53.4474V45.2931H57.4958V41.7091Z" fill="white"/>
<path d="M67.3477 58H71.2162L67.865 52.0189C69.5968 51.1112 70.7663 49.296 70.7663 47.2945C70.7663 44.1992 68.3598 41.7091 65.3685 41.7091H59.071V58H62.6696V52.6472H64.3789L67.3477 58ZM62.6696 45.2H65.3685C66.3581 45.2 67.1678 46.1076 67.1678 47.2945C67.1678 48.4814 66.3581 49.3891 65.3685 49.3891H62.6696V45.2Z" fill="white"/>
<path d="M80.2006 58.3258C84.7213 58.3258 88.3873 54.6487 88.3873 49.8545C88.3873 45.0603 84.7213 41.3832 80.2006 41.3832C75.6799 41.3832 72.0139 45.0603 72.0139 49.8545C72.0139 54.6487 75.6799 58.3258 80.2006 58.3258ZM80.2006 54.6952C77.6366 54.6952 75.6124 52.7636 75.6124 49.8545C75.6124 46.9454 77.6366 45.0138 80.2006 45.0138C82.7646 45.0138 84.7887 46.9454 84.7887 49.8545C84.7887 52.7636 82.7646 54.6952 80.2006 54.6952Z" fill="white"/>
<ellipse cx="107.481" cy="50" rx="15.4625" ry="16" fill="#FF0000"/>
<path d="M108.677 55.5039L112.818 51.2108L115.178 53.659C115.65 54.1472 115.915 54.8092 115.915 55.4995C115.915 56.1897 115.65 56.8517 115.178 57.3399L114.595 57.9434C114.362 58.1857 114.085 58.378 113.78 58.5092C113.474 58.6404 113.147 58.7079 112.817 58.7079C112.486 58.7079 112.159 58.6404 111.854 58.5092C111.548 58.378 111.271 58.1857 111.038 57.9434L108.677 55.5039ZM115.173 42.6382L114.587 42.0348C114.115 41.5468 113.475 41.2727 112.808 41.2727C112.141 41.2727 111.501 41.5468 111.03 42.0348L107.48 45.7157L103.923 42.0348C103.451 41.5468 102.812 41.2727 102.145 41.2727C101.478 41.2727 100.838 41.5468 100.366 42.0348L99.7829 42.6382C99.3114 43.1264 99.0465 43.7884 99.0465 44.4787C99.0465 45.1689 99.3114 45.8309 99.7829 46.3191L103.34 50L99.7829 53.6809C99.3114 54.1691 99.0465 54.8311 99.0465 55.5213C99.0465 56.2116 99.3114 56.8736 99.7829 57.3618L100.366 57.9652C100.838 58.4532 101.478 58.7273 102.145 58.7273C102.812 58.7273 103.451 58.4532 103.923 57.9652L115.178 46.3186C115.65 45.8304 115.915 45.1684 115.915 44.4781C115.915 43.7879 115.65 43.1259 115.178 42.6377L115.173 42.6382Z" fill="white"/>
</svg>
