<svg width="138" height="202" viewBox="0 0 138 202" fill="none" xmlns="http://www.w3.org/2000/svg">
<path d="M1 9C1 4.58173 4.58172 1 9 1H129C133.418 1 137 4.58172 137 9V193C137 197.418 133.418 201 129 201H9C4.58172 201 1 197.418 1 193V9Z" fill="white"/>
<path fill-rule="evenodd" clip-rule="evenodd" d="M49 17H113C117.418 17 121 20.5817 121 25V101H89V185H25C20.5817 185 17 181.418 17 177V101H49V17Z" fill="#009165"/>
<circle cx="69" cy="101" r="36" fill="black"/>
<path fill-rule="evenodd" clip-rule="evenodd" d="M69 125C82.2548 125 93 114.255 93 101C93 87.7452 82.2548 77 69 77C55.7452 77 45 87.7452 45 101C45 114.255 55.7452 125 69 125ZM69 113C75.6274 113 81 107.627 81 101C81 94.3726 75.6274 89 69 89C62.3726 89 57 94.3726 57 101C57 107.627 62.3726 113 69 113Z" fill="white"/>
<path d="M27.368 62.0838H24.2V72.1158H41V68.8038H34.52V62.2758H31.352V68.8038H27.368V62.0838Z" fill="black"/>
<path d="M31.064 56.7185H29V59.8145H41V56.7185H35.264C32.744 56.7185 32.024 54.6785 32.216 53.0705H28.76C28.76 54.5825 29.432 56.0945 31.064 56.7185Z" fill="black"/>
<path d="M36.272 49.0891V40.0411C35.864 39.9691 35.456 39.9211 35 39.9211C31.472 39.9211 28.664 42.4411 28.664 45.9931C28.664 49.7611 31.424 52.3291 35 52.3291C38.576 52.3291 41.336 49.7851 41.336 45.7531C41.336 43.4491 40.4 41.6491 38.768 40.5211L37.328 43.0171C38.024 43.5451 38.528 44.5051 38.528 45.7051C38.528 47.3371 37.856 48.6571 36.272 49.0891ZM33.872 49.1371C32.336 48.7771 31.448 47.6491 31.448 45.9931C31.448 44.6971 32.144 43.4011 33.872 43.0171V49.1371Z" fill="black"/>
<path d="M36.272 35.2375V26.1895C35.864 26.1175 35.456 26.0695 35 26.0695C31.472 26.0695 28.664 28.5895 28.664 32.1415C28.664 35.9095 31.424 38.4775 35 38.4775C38.576 38.4775 41.336 35.9335 41.336 31.9015C41.336 29.5975 40.4 27.7975 38.768 26.6695L37.328 29.1655C38.024 29.6935 38.528 30.6535 38.528 31.8535C38.528 33.4855 37.856 34.8055 36.272 35.2375ZM33.872 35.2855C32.336 34.9255 31.448 33.7975 31.448 32.1415C31.448 30.8455 32.144 29.5495 33.872 29.1655V35.2855Z" fill="black"/>
<path d="M110.632 139.916H113.8V129.884H97V133.196H103.48V139.724H106.648V133.196H110.632V139.916Z" fill="black"/>
<path d="M106.936 145.282H109V142.186H97V145.282H102.736C105.256 145.282 105.976 147.322 105.784 148.93H109.24C109.24 147.418 108.568 145.906 106.936 145.282Z" fill="black"/>
<path d="M101.728 152.911V161.959C102.136 162.031 102.544 162.079 103 162.079C106.528 162.079 109.336 159.559 109.336 156.007C109.336 152.239 106.576 149.671 103 149.671C99.424 149.671 96.664 152.215 96.664 156.247C96.664 158.551 97.6 160.351 99.232 161.479L100.672 158.983C99.976 158.455 99.472 157.495 99.472 156.295C99.472 154.663 100.144 153.343 101.728 152.911ZM104.128 152.863C105.664 153.223 106.552 154.351 106.552 156.007C106.552 157.303 105.856 158.599 104.128 158.983V152.863Z" fill="black"/>
<path d="M101.728 166.762V175.81C102.136 175.882 102.544 175.93 103 175.93C106.528 175.93 109.336 173.41 109.336 169.858C109.336 166.09 106.576 163.522 103 163.522C99.424 163.522 96.664 166.066 96.664 170.098C96.664 172.402 97.6 174.202 99.232 175.33L100.672 172.834C99.976 172.306 99.472 171.346 99.472 170.146C99.472 168.514 100.144 167.194 101.728 166.762ZM104.128 166.714C105.664 167.074 106.552 168.202 106.552 169.858C106.552 171.154 105.856 172.45 104.128 172.834V166.714Z" fill="black"/>
<path d="M9 1.5H129V0.5H9V1.5ZM136.5 9V193H137.5V9H136.5ZM129 200.5H9V201.5H129V200.5ZM1.5 193V9H0.5V193H1.5ZM9 200.5C4.85786 200.5 1.5 197.142 1.5 193H0.5C0.5 197.694 4.30558 201.5 9 201.5V200.5ZM136.5 193C136.5 197.142 133.142 200.5 129 200.5V201.5C133.694 201.5 137.5 197.694 137.5 193H136.5ZM129 1.5C133.142 1.5 136.5 4.85786 136.5 9H137.5C137.5 4.30558 133.694 0.5 129 0.5V1.5ZM9 0.5C4.30558 0.5 0.5 4.30558 0.5 9H1.5C1.5 4.85787 4.85786 1.5 9 1.5V0.5Z" fill="#D2D2D2"/>
</svg>
