<svg width="387" height="88" viewBox="0 0 387 88" fill="none" xmlns="http://www.w3.org/2000/svg">
<rect y="8" width="387" height="72" fill="black"/>
<path d="M89.0463 21.2H78.8063L66.6463 41.104L54.4863 21.2H44.2463V66H54.4863V39.952L66.0703 58.96H67.2223L78.8063 39.952V66H89.0463V21.2ZM106.986 56.144V48.208H122.986V38.48H106.986V31.056H124.586V21.2H96.7463V66H124.906V56.144H106.986ZM160.764 21.2H127.484V31.056H139.004V66H149.244V31.056H160.764V21.2ZM188.798 66H199.806L190.27 49.552C195.198 47.056 198.526 42.064 198.526 36.56C198.526 28.048 191.678 21.2 183.166 21.2H165.246V66H175.486V51.28H180.35L188.798 66ZM175.486 30.8H183.166C185.982 30.8 188.286 33.296 188.286 36.56C188.286 39.824 185.982 42.32 183.166 42.32H175.486V30.8ZM225.372 66.896C238.236 66.896 248.668 56.784 248.668 43.6C248.668 30.416 238.236 20.304 225.372 20.304C212.508 20.304 202.076 30.416 202.076 43.6C202.076 56.784 212.508 66.896 225.372 66.896ZM225.372 56.912C218.076 56.912 212.316 51.6 212.316 43.6C212.316 35.6 218.076 30.288 225.372 30.288C232.668 30.288 238.428 35.6 238.428 43.6C238.428 51.6 232.668 56.912 225.372 56.912Z" fill="white"/>
<circle cx="303" cy="44" r="44" fill="#FF0000"/>
<path d="M306.404 59.1356L318.187 47.3296L324.904 54.0623C326.246 55.4049 327 57.2254 327 59.1235C327 61.0217 326.246 62.8422 324.904 64.1848L323.245 65.8443C322.581 66.5107 321.793 67.0394 320.924 67.4002C320.056 67.761 319.124 67.9467 318.184 67.9467C317.243 67.9467 316.312 67.761 315.444 67.4002C314.575 67.0394 313.787 66.5107 313.123 65.8443L306.404 59.1356ZM324.888 23.7551L323.221 22.0956C321.878 20.7538 320.058 20 318.16 20C316.262 20 314.441 20.7538 313.099 22.0956L302.999 32.218L292.877 22.0956C291.535 20.7538 289.714 20 287.816 20C285.918 20 284.098 20.7538 282.755 22.0956L281.096 23.7551C279.754 25.0977 279 26.9182 279 28.8163C279 30.7145 279.754 32.535 281.096 33.8776L291.218 44L281.096 54.1224C279.754 55.465 279 57.2855 279 59.1837C279 61.0818 279.754 62.9023 281.096 64.2449L282.755 65.9044C284.098 67.2462 285.918 68 287.816 68C289.714 68 291.535 67.2462 292.877 65.9044L324.904 33.8761C326.246 32.5335 327 30.713 327 28.8148C327 26.9167 326.246 25.0962 324.904 23.7536L324.888 23.7551Z" fill="white"/>
</svg>
