<svg width="286" height="88" viewBox="0 0 286 88" fill="none" xmlns="http://www.w3.org/2000/svg">
<circle cx="241.754" cy="44" r="44" fill="#FF0000"/>
<path d="M245.583 61.0275L258.839 47.7458L266.396 55.3201C267.906 56.8305 268.754 58.8786 268.754 61.014C268.754 63.1494 267.906 65.1975 266.396 66.7079L264.529 68.5748C263.783 69.3245 262.895 69.9194 261.918 70.3252C260.941 70.7311 259.894 70.9401 258.836 70.9401C257.778 70.9401 256.73 70.7311 255.753 70.3252C254.776 69.9194 253.889 69.3245 253.142 68.5748L245.583 61.0275ZM266.378 21.2245L264.502 19.3575C262.992 17.848 260.944 17 258.809 17C256.673 17 254.625 17.848 253.115 19.3575L241.753 30.7453L230.365 19.3575C228.855 17.848 226.807 17 224.672 17C222.536 17 220.488 17.848 218.978 19.3575L217.111 21.2245C215.602 22.7349 214.754 24.7829 214.754 26.9184C214.754 29.0538 215.602 31.1018 217.111 32.6122L228.499 44L217.111 55.3878C215.602 56.8982 214.754 58.9462 214.754 61.0816C214.754 63.2171 215.602 65.2651 217.111 66.7755L218.978 68.6425C220.488 70.152 222.536 71 224.672 71C226.807 71 228.855 70.152 230.365 68.6425L266.396 32.6106C267.906 31.1002 268.754 29.0521 268.754 26.9167C268.754 24.7812 267.906 22.7332 266.396 21.2228L266.378 21.2245Z" fill="white"/>
<path d="M44.7075 21.1886H34.4887L22.3538 40.8397L10.2189 21.1886H0V65.4193H10.2189V39.7023L21.7789 58.4688H22.9286L34.4887 39.7023V65.4193H44.7075V21.1886Z" fill="white"/>
<path d="M62.6105 55.6886V47.8534H78.5775V38.249H62.6105V30.9193H80.1741V21.1886H52.3916V65.4193H80.4935V55.6886H62.6105Z" fill="white"/>
<path d="M116.277 21.1886H83.0657V30.9193H94.5619V65.4193H104.781V30.9193H116.277V21.1886Z" fill="white"/>
<path d="M144.254 65.4193H155.239L145.723 49.1803C150.64 46.716 153.962 41.7875 153.962 36.3534C153.962 27.9496 147.128 21.1886 138.633 21.1886H120.75V65.4193H130.969V50.8864H135.823L144.254 65.4193ZM130.969 30.6666H138.633C141.443 30.6666 143.743 33.1309 143.743 36.3534C143.743 39.5759 141.443 42.0402 138.633 42.0402H130.969V30.6666Z" fill="white"/>
<path d="M180.752 66.304C193.59 66.304 204 56.3204 204 43.304C204 30.2875 193.59 20.304 180.752 20.304C167.915 20.304 157.504 30.2875 157.504 43.304C157.504 56.3204 167.915 66.304 180.752 66.304ZM180.752 56.4468C173.471 56.4468 167.723 51.2023 167.723 43.304C167.723 35.4056 173.471 30.1611 180.752 30.1611C188.033 30.1611 193.781 35.4056 193.781 43.304C193.781 51.2023 188.033 56.4468 180.752 56.4468Z" fill="white"/>
</svg>
