<svg width="1200" height="619" viewBox="0 0 1200 619" fill="none" xmlns="http://www.w3.org/2000/svg">
<rect x="0.500488" y="0.5" width="1199" height="618" rx="7.5" fill="white" stroke="black"/>
<path d="M8.00049 0.5H1192C1196.14 0.5 1199.5 3.85786 1199.5 8V108.735H0.500488V7.99999C0.500488 3.85786 3.85835 0.5 8.00049 0.5Z" fill="#FFE145" stroke="black"/>
<path d="M445.349 34.5912H430.668V72.8235H438.431V60.2615H445.349C452.943 60.2615 458.793 54.5812 458.793 47.4263C458.793 40.2714 452.943 34.5912 445.349 34.5912ZM445.349 53.2158H438.431V41.6368H445.349C448.668 41.6368 451.087 44.0946 451.087 47.4263C451.087 50.7034 448.668 53.2158 445.349 53.2158Z" fill="black"/>
<path d="M467.773 62.0638H488.979C489.148 61.1353 489.26 60.2068 489.26 59.1691C489.26 51.1403 483.354 44.75 475.029 44.75C466.198 44.75 460.179 51.0311 460.179 59.1691C460.179 67.3071 466.142 73.5882 475.592 73.5882C480.992 73.5882 485.21 71.4581 487.854 67.7441L482.004 64.467C480.767 66.0509 478.517 67.1979 475.704 67.1979C471.879 67.1979 468.785 65.6686 467.773 62.0638ZM467.66 56.6021C468.504 53.1065 471.148 51.0857 475.029 51.0857C478.067 51.0857 481.104 52.6696 482.004 56.6021H467.66Z" fill="black"/>
<path d="M509.964 44.75C506.195 44.75 503.27 46.1155 501.582 48.5733V45.5147H494.326V72.8235H501.582V58.0768C501.582 53.325 504.226 51.3042 507.77 51.3042C511.032 51.3042 513.338 53.2158 513.338 56.9298V72.8235H520.595V56.0559C520.595 48.7918 515.926 44.75 509.964 44.75Z" fill="black"/>
<path d="M548.166 45.5147V48.7371C546.141 46.2793 543.103 44.75 538.997 44.75C531.516 44.75 525.328 51.0311 525.328 59.1691C525.328 67.3071 531.516 73.5882 538.997 73.5882C543.103 73.5882 546.141 72.0589 548.166 69.6011V72.8235H555.422V45.5147H548.166ZM540.347 66.8702C535.903 66.8702 532.584 63.757 532.584 59.1691C532.584 54.5812 535.903 51.468 540.347 51.468C544.847 51.468 548.166 54.5812 548.166 59.1691C548.166 63.757 544.847 66.8702 540.347 66.8702Z" fill="black"/>
<path d="M562.002 72.8235H569.258V32.9526H562.002V72.8235Z" fill="black"/>
<path d="M591.987 52.2873V45.5147H585.631V37.8682L578.374 39.9983V45.5147H573.481V52.2873H578.374V63.6478C578.374 71.0211 581.806 73.9159 591.987 72.8235V66.4333C587.824 66.6517 585.631 66.5971 585.631 63.6478V52.2873H591.987Z" fill="black"/>
<path d="M616.045 45.5147L609.801 63.8662L602.489 45.5147H594.557L606.089 71.9496C604.739 75.609 602.714 77.2475 598.72 77.1929V83.747C605.864 84.1294 610.645 80.6885 613.57 72.8235L623.807 45.5147H616.045Z" fill="black"/>
<path d="M657.41 52.2873V45.5147H651.054V37.8682L643.798 39.9983V45.5147H638.904V52.2873H643.798V63.6478C643.798 71.0211 647.229 73.9159 657.41 72.8235V66.4333C653.248 66.6517 651.054 66.5971 651.054 63.6478V52.2873H657.41Z" fill="black"/>
<path d="M683.023 45.5147V48.7371C680.998 46.2793 677.96 44.75 673.854 44.75C666.373 44.75 660.185 51.0311 660.185 59.1691C660.185 67.3071 666.373 73.5882 673.854 73.5882C677.96 73.5882 680.998 72.0589 683.023 69.6011V72.8235H690.279V45.5147H683.023ZM675.204 66.8702C670.76 66.8702 667.441 63.757 667.441 59.1691C667.441 54.5812 670.76 51.468 675.204 51.468C679.704 51.468 683.023 54.5812 683.023 59.1691C683.023 63.757 679.704 66.8702 675.204 66.8702Z" fill="black"/>
<path d="M713.228 44.75C709.121 44.75 706.14 46.2247 704.115 48.7371V34.5912H696.859V72.8235H704.115V69.6011C706.14 72.1135 709.121 73.5882 713.228 73.5882C720.765 73.5882 726.953 67.3071 726.953 59.1691C726.953 51.0311 720.765 44.75 713.228 44.75ZM711.878 66.8702C707.434 66.8702 704.115 63.757 704.115 59.1691C704.115 54.5812 707.434 51.468 711.878 51.468C716.378 51.468 719.696 54.5812 719.696 59.1691C719.696 63.757 716.378 66.8702 711.878 66.8702Z" fill="black"/>
<path d="M732.07 72.8235H739.326V32.9526H732.07V72.8235Z" fill="black"/>
<path d="M752.099 62.0638H773.305C773.474 61.1353 773.586 60.2068 773.586 59.1691C773.586 51.1403 767.68 44.75 759.355 44.75C750.524 44.75 744.505 51.0311 744.505 59.1691C744.505 67.3071 750.468 73.5882 759.918 73.5882C765.318 73.5882 769.536 71.4581 772.18 67.7441L766.33 64.467C765.093 66.0509 762.843 67.1979 760.03 67.1979C756.205 67.1979 753.111 65.6686 752.099 62.0638ZM751.986 56.6021C752.83 53.1065 755.474 51.0857 759.355 51.0857C762.393 51.0857 765.43 52.6696 766.33 56.6021H751.986Z" fill="black"/>
<line x1="599.501" y1="619" x2="599.501" y2="106.96" stroke="black"/>
<line y1="181.559" x2="1200" y2="181.559" stroke="black"/>
<line x1="0.00114441" y1="254.382" x2="1200" y2="254.382" stroke="#FFE145"/>
<line x1="0.00114441" y1="327.206" x2="1200" y2="327.206" stroke="#FFE145"/>
<line x1="0.00114441" y1="400.029" x2="1200" y2="400.029" stroke="#FFE145"/>
<line x1="0.00114441" y1="472.853" x2="1200" y2="472.853" stroke="#FFE145"/>
<line x1="0.00114441" y1="545.676" x2="1200" y2="545.676" stroke="#FFE145"/>
<path d="M26.3639 152.219V146.503H36.3014V141.769H26.3639V136.344H37.2389V131.538H21.1889V157.026H37.4264V152.219H26.3639Z" fill="black"/>
<path d="M61.5866 138.31C59.0366 138.31 57.1616 139.293 55.9991 140.932C54.9491 139.257 53.2241 138.31 50.8991 138.31C48.4991 138.31 46.7366 139.22 45.6866 140.75V138.82H40.8491V157.026H45.6866V146.794C45.6866 144.063 47.1491 142.68 49.2116 142.68C51.2366 142.68 52.3616 143.99 52.3616 146.139V157.026H57.1991V146.794C57.1991 144.063 58.5491 142.68 60.6866 142.68C62.7116 142.68 63.8366 143.99 63.8366 146.139V157.026H68.6741V145.811C68.6741 141.259 65.8616 138.31 61.5866 138.31Z" fill="black"/>
<path d="M83.6952 138.31C80.9577 138.31 78.9702 139.293 77.6202 140.968V138.82H72.7827V164.308H77.6202V154.877C78.9702 156.552 80.9577 157.536 83.6952 157.536C88.7202 157.536 92.8452 153.348 92.8452 147.923C92.8452 142.497 88.7202 138.31 83.6952 138.31ZM82.7952 153.057C79.8327 153.057 77.6202 150.981 77.6202 147.923C77.6202 144.864 79.8327 142.789 82.7952 142.789C85.7952 142.789 88.0077 144.864 88.0077 147.923C88.0077 150.981 85.7952 153.057 82.7952 153.057Z" fill="black"/>
<path d="M106.579 143.335V138.82H102.341V133.722L97.5039 135.142V138.82H94.2414V143.335H97.5039V150.909C97.5039 155.824 99.7914 157.754 106.579 157.026V152.766C103.804 152.911 102.341 152.875 102.341 150.909V143.335H106.579Z" fill="black"/>
<path d="M122.617 138.82L118.455 151.054L113.58 138.82H108.293L115.98 156.443C115.08 158.883 113.73 159.975 111.068 159.939V164.308C115.83 164.563 119.018 162.269 120.968 157.026L127.792 138.82H122.617Z" fill="black"/>
<path d="M143.932 143.99C143.932 143.007 144.907 142.497 146.107 142.497C147.495 142.497 148.545 143.189 149.107 144.354L153.232 142.17C151.77 139.657 149.145 138.31 146.107 138.31C142.245 138.31 138.982 140.386 138.982 144.1C138.982 150.508 148.657 149.052 148.657 151.71C148.657 152.766 147.607 153.275 146.07 153.275C144.195 153.275 142.92 152.401 142.395 150.909L138.195 153.203C139.545 156.006 142.32 157.536 146.07 157.536C150.082 157.536 153.607 155.642 153.607 151.71C153.607 145.01 143.932 146.685 143.932 143.99Z" fill="black"/>
<path d="M166.894 143.335V138.82H162.656V133.722L157.819 135.142V138.82H154.556V143.335H157.819V150.909C157.819 155.824 160.106 157.754 166.894 157.026V152.766C164.119 152.911 162.656 152.875 162.656 150.909V143.335H166.894Z" fill="black"/>
<path d="M183.969 138.82V140.968C182.619 139.33 180.594 138.31 177.856 138.31C172.869 138.31 168.744 142.497 168.744 147.923C168.744 153.348 172.869 157.536 177.856 157.536C180.594 157.536 182.619 156.516 183.969 154.877V157.026H188.806V138.82H183.969ZM178.756 153.057C175.794 153.057 173.581 150.981 173.581 147.923C173.581 144.864 175.794 142.789 178.756 142.789C181.756 142.789 183.969 144.864 183.969 147.923C183.969 150.981 181.756 153.057 178.756 153.057Z" fill="black"/>
<path d="M203.918 143.335V138.82H199.68V133.722L194.843 135.142V138.82H191.58V143.335H194.843V150.909C194.843 155.824 197.13 157.754 203.918 157.026V152.766C201.143 152.911 199.68 152.875 199.68 150.909V143.335H203.918Z" fill="black"/>
<path d="M209.728 136.635C211.378 136.635 212.728 135.324 212.728 133.759C212.728 132.193 211.378 130.846 209.728 130.846C208.116 130.846 206.766 132.193 206.766 133.759C206.766 135.324 208.116 136.635 209.728 136.635ZM207.328 157.026H212.166V138.82H207.328V157.026Z" fill="black"/>
<path d="M225.519 157.536C231.031 157.536 235.456 153.348 235.456 147.923C235.456 142.497 231.031 138.31 225.519 138.31C220.006 138.31 215.619 142.497 215.619 147.923C215.619 153.348 220.006 157.536 225.519 157.536ZM225.519 152.948C222.669 152.948 220.456 150.872 220.456 147.923C220.456 144.973 222.669 142.898 225.519 142.898C228.406 142.898 230.619 144.973 230.619 147.923C230.619 150.872 228.406 152.948 225.519 152.948Z" fill="black"/>
<path d="M249.284 138.31C246.772 138.31 244.822 139.22 243.697 140.859V138.82H238.859V157.026H243.697V147.195C243.697 144.027 245.459 142.68 247.822 142.68C249.997 142.68 251.534 143.954 251.534 146.43V157.026H256.372V145.847C256.372 141.005 253.259 138.31 249.284 138.31Z" fill="black"/>
<path d="M264.965 143.99C264.965 143.007 265.94 142.497 267.14 142.497C268.527 142.497 269.577 143.189 270.14 144.354L274.265 142.17C272.802 139.657 270.177 138.31 267.14 138.31C263.277 138.31 260.015 140.386 260.015 144.1C260.015 150.508 269.69 149.052 269.69 151.71C269.69 152.766 268.64 153.275 267.102 153.275C265.227 153.275 263.952 152.401 263.427 150.909L259.227 153.203C260.577 156.006 263.352 157.536 267.102 157.536C271.115 157.536 274.64 155.642 274.64 151.71C274.64 145.01 264.965 146.685 264.965 143.99Z" fill="black"/>
<path d="M117.942 230.359C124.654 230.359 128.442 224.97 128.442 217.105C128.442 209.241 124.654 203.852 117.942 203.852C111.267 203.852 107.442 209.241 107.442 217.105C107.442 224.97 111.267 230.359 117.942 230.359ZM117.942 225.444C114.417 225.444 112.617 222.494 112.617 217.105C112.617 211.717 114.417 208.731 117.942 208.731C121.467 208.731 123.304 211.717 123.304 217.105C123.304 222.494 121.467 225.444 117.942 225.444Z" fill="black"/>
<path d="M141.562 221.111H155.625V216.596H141.562V221.111Z" fill="black"/>
<path d="M188.658 220.856H185.845V214.812H180.633V220.856H173.808L182.508 204.361H176.958L168.22 220.856V225.517H180.633V229.85H185.845V225.517H188.658V220.856Z" fill="black"/>
<path d="M147.885 286.47H145.185L145.522 281.882H155.61V277.185H140.722L139.672 291.349H147.622C150.172 291.349 151.672 292.769 151.672 294.808C151.672 296.883 150.172 298.267 147.472 298.267C144.847 298.267 143.385 297.175 142.747 295.208L138.322 297.721C139.822 301.435 143.385 303.183 147.472 303.183C152.422 303.183 156.847 300.27 156.847 294.808C156.847 289.346 152.685 286.47 147.885 286.47Z" fill="black"/>
<path d="M147.981 358.274L153.794 350.008H147.869L139.694 361.988C138.719 363.408 138.156 365.156 138.156 367.122C138.156 372.329 142.019 376.006 147.644 376.006C153.269 376.006 157.169 372.329 157.169 367.122C157.169 362.024 153.419 358.419 147.981 358.274ZM147.644 371.273C145.206 371.273 143.294 369.707 143.294 367.122C143.294 364.537 145.206 363.007 147.644 363.007C150.081 363.007 152.031 364.573 152.031 367.122C152.031 369.707 150.081 371.273 147.644 371.273Z" fill="black"/>
<path d="M138.953 422.832V427.638H150.166L141.541 448.32H147.016L155.903 427.092V422.832H138.953Z" fill="black"/>
<path d="M124.22 507.89C125.908 506.724 126.958 504.977 126.958 502.61C126.958 497.694 123.058 495.146 118.445 495.146C113.833 495.146 109.895 497.694 109.895 502.61C109.895 504.977 110.983 506.724 112.633 507.89C110.345 509.237 109.033 511.458 109.033 514.043C109.033 518.74 112.595 521.653 118.445 521.653C124.258 521.653 127.858 518.74 127.858 514.043C127.858 511.458 126.545 509.237 124.22 507.89ZM118.445 499.879C120.395 499.879 121.82 500.971 121.82 502.865C121.82 504.722 120.395 505.887 118.445 505.887C116.495 505.887 115.07 504.722 115.07 502.865C115.07 500.971 116.495 499.879 118.445 499.879ZM118.445 516.92C115.97 516.92 114.17 515.682 114.17 513.388C114.17 511.13 115.97 509.892 118.445 509.892C120.92 509.892 122.72 511.13 122.72 513.388C122.72 515.682 120.92 516.92 118.445 516.92Z" fill="black"/>
<path d="M140.921 512.405H154.984V507.89H140.921V512.405Z" fill="black"/>
<path d="M186.667 503.994C186.667 498.787 182.804 495.146 177.142 495.146C171.554 495.146 167.654 498.787 167.654 503.994C167.654 509.128 171.442 512.732 176.879 512.842L171.029 521.144H176.954L185.129 509.164H185.092C186.104 507.744 186.667 505.96 186.667 503.994ZM172.792 503.994C172.792 501.445 174.742 499.879 177.142 499.879C179.617 499.879 181.529 501.408 181.529 503.994C181.529 506.579 179.617 508.145 177.142 508.145C174.742 508.145 172.792 506.579 172.792 503.994Z" fill="black"/>
<path d="M102.565 568.479L95.6649 570.845L96.9399 575.142L101.89 573.795V593.967H107.065V568.479H102.565Z" fill="black"/>
<path d="M121.567 594.477C128.279 594.477 132.067 589.088 132.067 581.223C132.067 573.358 128.279 567.969 121.567 567.969C114.892 567.969 111.067 573.358 111.067 581.223C111.067 589.088 114.892 594.477 121.567 594.477ZM121.567 589.561C118.042 589.561 116.242 586.612 116.242 581.223C116.242 575.834 118.042 572.848 121.567 572.848C125.092 572.848 126.929 575.834 126.929 581.223C126.929 586.612 125.092 589.561 121.567 589.561Z" fill="black"/>
<path d="M145.187 585.228H159.25V580.713H145.187V585.228Z" fill="black"/>
<path d="M178.371 568.479L171.471 570.845L172.746 575.142L177.696 573.795V593.967H182.871V568.479H178.371Z" fill="black"/>
<path d="M192.872 568.479L185.972 570.845L187.247 575.142L192.197 573.795V593.967H197.372V568.479H192.872Z" fill="black"/>
<path d="M701.448 204.361L694.548 206.728L695.823 211.025L700.773 209.677V229.85H705.948V204.361H701.448Z" fill="black"/>
<path d="M709.65 229.85H727.2V225.007H717.337L722.475 220.018C724.95 217.615 726.787 214.957 726.787 211.862C726.787 206.765 722.625 203.852 718.125 203.852C714.562 203.852 711.15 205.599 709.462 209.241L713.812 211.717C714.675 209.896 716.175 208.731 718.2 208.731C720.187 208.731 721.612 210.005 721.612 212.044C721.612 213.756 720.3 215.431 718.612 217.142L709.65 226.099V229.85Z" fill="black"/>
<path d="M740.372 221.111H754.434V216.596H740.372V221.111Z" fill="black"/>
<path d="M773.555 204.361L766.655 206.728L767.93 211.025L772.88 209.677V229.85H778.055V204.361H773.555Z" fill="black"/>
<path d="M793.982 214.702L798.894 208.512V204.361H782.394V209.058H792.669L787.494 215.613L789.482 218.526H790.607C793.307 218.526 794.807 219.946 794.807 221.985C794.807 224.06 793.307 225.444 790.607 225.444C788.132 225.444 786.669 224.388 786.032 222.494L781.607 224.97C783.107 228.612 786.669 230.359 790.607 230.359C795.557 230.359 799.982 227.446 799.982 221.985C799.982 218.234 797.394 215.685 793.982 214.702Z" fill="black"/>
<path d="M700.477 277.185L693.577 279.551L694.852 283.848L699.802 282.501V302.673H704.977V277.185H700.477Z" fill="black"/>
<path d="M728.892 293.679H726.079V287.635H720.867V293.679H714.042L722.742 277.185H717.192L708.454 293.679V298.34H720.867V302.673H726.079V298.34H728.892V293.679Z" fill="black"/>
<path d="M741.232 293.934H755.295V289.419H741.232V293.934Z" fill="black"/>
<path d="M774.415 277.185L767.515 279.551L768.79 283.848L773.74 282.501V302.673H778.915V277.185H774.415Z" fill="black"/>
<path d="M792.105 286.47H789.405L789.742 281.882H799.83V277.185H784.942L783.892 291.349H791.842C794.392 291.349 795.892 292.769 795.892 294.808C795.892 296.883 794.392 298.267 791.692 298.267C789.067 298.267 787.605 297.175 786.967 295.208L782.542 297.721C784.042 301.435 787.605 303.183 791.692 303.183C796.642 303.183 801.067 300.27 801.067 294.808C801.067 289.346 796.905 286.47 792.105 286.47Z" fill="black"/>
<path d="M702.07 350.008L695.17 352.375L696.445 356.672L701.395 355.324V375.497H706.57V350.008H702.07Z" fill="black"/>
<path d="M719.947 358.274L725.76 350.008H719.835L711.66 361.988C710.685 363.408 710.122 365.156 710.122 367.122C710.122 372.329 713.985 376.006 719.61 376.006C725.235 376.006 729.135 372.329 729.135 367.122C729.135 362.024 725.385 358.419 719.947 358.274ZM719.61 371.273C717.172 371.273 715.26 369.707 715.26 367.122C715.26 364.537 717.172 363.007 719.61 363.007C722.047 363.007 723.997 364.573 723.997 367.122C723.997 369.707 722.047 371.273 719.61 371.273Z" fill="black"/>
<path d="M741.8 366.758H755.862V362.243H741.8V366.758Z" fill="black"/>
<path d="M774.983 350.008L768.083 352.375L769.358 356.672L774.308 355.324V375.497H779.483V350.008H774.983Z" fill="black"/>
<path d="M782.66 350.008V354.815H793.872L785.247 375.497H790.722L799.61 354.268V350.008H782.66Z" fill="black"/>
<path d="M700.605 422.832L693.705 425.198L694.98 429.495L699.93 428.148V448.32H705.105V422.832H700.605Z" fill="black"/>
<path d="M724.22 435.066C725.907 433.901 726.957 432.153 726.957 429.786C726.957 424.871 723.057 422.322 718.445 422.322C713.832 422.322 709.895 424.871 709.895 429.786C709.895 432.153 710.982 433.901 712.632 435.066C710.345 436.413 709.032 438.634 709.032 441.219C709.032 445.917 712.595 448.83 718.445 448.83C724.257 448.83 727.857 445.917 727.857 441.219C727.857 438.634 726.545 436.413 724.22 435.066ZM718.445 427.055C720.395 427.055 721.82 428.148 721.82 430.041C721.82 431.898 720.395 433.063 718.445 433.063C716.495 433.063 715.07 431.898 715.07 430.041C715.07 428.148 716.495 427.055 718.445 427.055ZM718.445 444.096C715.97 444.096 714.17 442.858 714.17 440.564C714.17 438.307 715.97 437.069 718.445 437.069C720.92 437.069 722.72 438.307 722.72 440.564C722.72 442.858 720.92 444.096 718.445 444.096Z" fill="black"/>
<path d="M740.921 439.581H754.983V435.066H740.921V439.581Z" fill="black"/>
<path d="M774.104 422.832L767.204 425.198L768.479 429.495L773.429 428.148V448.32H778.604V422.832H774.104Z" fill="black"/>
<path d="M801.168 431.17C801.168 425.963 797.306 422.322 791.643 422.322C786.056 422.322 782.156 425.963 782.156 431.17C782.156 436.304 785.943 439.909 791.381 440.018L785.531 448.32H791.456L799.631 436.34H799.593C800.606 434.92 801.168 433.136 801.168 431.17ZM787.293 431.17C787.293 428.621 789.243 427.055 791.643 427.055C794.118 427.055 796.031 428.585 796.031 431.17C796.031 433.755 794.118 435.321 791.643 435.321C789.243 435.321 787.293 433.755 787.293 431.17Z" fill="black"/>
<path d="M716.681 521.144H734.231V516.301H724.368L729.506 511.312C731.981 508.909 733.818 506.251 733.818 503.156C733.818 498.058 729.656 495.146 725.156 495.146C721.593 495.146 718.181 496.893 716.493 500.534L720.843 503.01C721.706 501.19 723.206 500.025 725.231 500.025C727.218 500.025 728.643 501.299 728.643 503.338C728.643 505.05 727.331 506.724 725.643 508.436L716.681 517.393V521.144Z" fill="black"/>
<path d="M747.036 521.653C753.749 521.653 757.536 516.264 757.536 508.399C757.536 500.534 753.749 495.146 747.036 495.146C740.361 495.146 736.536 500.534 736.536 508.399C736.536 516.264 740.361 521.653 747.036 521.653ZM747.036 516.738C743.511 516.738 741.711 513.788 741.711 508.399C741.711 503.01 743.511 500.025 747.036 500.025C750.561 500.025 752.399 503.01 752.399 508.399C752.399 513.788 750.561 516.738 747.036 516.738Z" fill="black"/>
<path d="M777.707 506.178H771.519V500.207H766.982V506.178H760.832V510.584H766.982V516.592H771.519V510.584H777.707V506.178Z" fill="black"/>
<path d="M626.363 152.219V146.503H636.301V141.769H626.363V136.344H637.238V131.538H621.188V157.026H637.426V152.219H626.363Z" fill="black"/>
<path d="M661.586 138.31C659.036 138.31 657.161 139.293 655.999 140.932C654.949 139.257 653.224 138.31 650.899 138.31C648.499 138.31 646.736 139.22 645.686 140.75V138.82H640.849V157.026H645.686V146.794C645.686 144.063 647.149 142.68 649.211 142.68C651.236 142.68 652.361 143.99 652.361 146.139V157.026H657.199V146.794C657.199 144.063 658.549 142.68 660.686 142.68C662.711 142.68 663.836 143.99 663.836 146.139V157.026H668.674V145.811C668.674 141.259 665.861 138.31 661.586 138.31Z" fill="black"/>
<path d="M683.695 138.31C680.957 138.31 678.97 139.293 677.62 140.968V138.82H672.782V164.308H677.62V154.877C678.97 156.552 680.957 157.536 683.695 157.536C688.72 157.536 692.845 153.348 692.845 147.923C692.845 142.497 688.72 138.31 683.695 138.31ZM682.795 153.057C679.832 153.057 677.62 150.981 677.62 147.923C677.62 144.864 679.832 142.789 682.795 142.789C685.795 142.789 688.007 144.864 688.007 147.923C688.007 150.981 685.795 153.057 682.795 153.057Z" fill="black"/>
<path d="M706.578 143.335V138.82H702.341V133.722L697.503 135.142V138.82H694.241V143.335H697.503V150.909C697.503 155.824 699.791 157.754 706.578 157.026V152.766C703.803 152.911 702.341 152.875 702.341 150.909V143.335H706.578Z" fill="black"/>
<path d="M722.617 138.82L718.455 151.054L713.58 138.82H708.292L715.98 156.443C715.08 158.883 713.73 159.975 711.067 159.939V164.308C715.83 164.563 719.017 162.269 720.967 157.026L727.792 138.82H722.617Z" fill="black"/>
<path d="M743.932 143.99C743.932 143.007 744.907 142.497 746.107 142.497C747.494 142.497 748.544 143.189 749.107 144.354L753.232 142.17C751.769 139.657 749.144 138.31 746.107 138.31C742.244 138.31 738.982 140.386 738.982 144.1C738.982 150.508 748.657 149.052 748.657 151.71C748.657 152.766 747.607 153.275 746.069 153.275C744.194 153.275 742.919 152.401 742.394 150.909L738.194 153.203C739.544 156.006 742.319 157.536 746.069 157.536C750.082 157.536 753.607 155.642 753.607 151.71C753.607 145.01 743.932 146.685 743.932 143.99Z" fill="black"/>
<path d="M766.893 143.335V138.82H762.656V133.722L757.818 135.142V138.82H754.556V143.335H757.818V150.909C757.818 155.824 760.106 157.754 766.893 157.026V152.766C764.118 152.911 762.656 152.875 762.656 150.909V143.335H766.893Z" fill="black"/>
<path d="M783.968 138.82V140.968C782.618 139.33 780.593 138.31 777.856 138.31C772.868 138.31 768.743 142.497 768.743 147.923C768.743 153.348 772.868 157.536 777.856 157.536C780.593 157.536 782.618 156.516 783.968 154.877V157.026H788.806V138.82H783.968ZM778.756 153.057C775.793 153.057 773.581 150.981 773.581 147.923C773.581 144.864 775.793 142.789 778.756 142.789C781.756 142.789 783.968 144.864 783.968 147.923C783.968 150.981 781.756 153.057 778.756 153.057Z" fill="black"/>
<path d="M803.917 143.335V138.82H799.68V133.722L794.842 135.142V138.82H791.58V143.335H794.842V150.909C794.842 155.824 797.13 157.754 803.917 157.026V152.766C801.142 152.911 799.68 152.875 799.68 150.909V143.335H803.917Z" fill="black"/>
<path d="M809.728 136.635C811.378 136.635 812.728 135.324 812.728 133.759C812.728 132.193 811.378 130.846 809.728 130.846C808.116 130.846 806.766 132.193 806.766 133.759C806.766 135.324 808.116 136.635 809.728 136.635ZM807.328 157.026H812.166V138.82H807.328V157.026Z" fill="black"/>
<path d="M825.518 157.536C831.031 157.536 835.456 153.348 835.456 147.923C835.456 142.497 831.031 138.31 825.518 138.31C820.006 138.31 815.618 142.497 815.618 147.923C815.618 153.348 820.006 157.536 825.518 157.536ZM825.518 152.948C822.668 152.948 820.456 150.872 820.456 147.923C820.456 144.973 822.668 142.898 825.518 142.898C828.406 142.898 830.618 144.973 830.618 147.923C830.618 150.872 828.406 152.948 825.518 152.948Z" fill="black"/>
<path d="M849.284 138.31C846.771 138.31 844.821 139.22 843.696 140.859V138.82H838.859V157.026H843.696V147.195C843.696 144.027 845.459 142.68 847.821 142.68C849.996 142.68 851.534 143.954 851.534 146.43V157.026H856.371V145.847C856.371 141.005 853.259 138.31 849.284 138.31Z" fill="black"/>
<path d="M864.964 143.99C864.964 143.007 865.939 142.497 867.139 142.497C868.527 142.497 869.577 143.189 870.139 144.354L874.264 142.17C872.802 139.657 870.177 138.31 867.139 138.31C863.277 138.31 860.014 140.386 860.014 144.1C860.014 150.508 869.689 149.052 869.689 151.71C869.689 152.766 868.639 153.275 867.102 153.275C865.227 153.275 863.952 152.401 863.427 150.909L859.227 153.203C860.577 156.006 863.352 157.536 867.102 157.536C871.114 157.536 874.639 155.642 874.639 151.71C874.639 145.01 864.964 146.685 864.964 143.99Z" fill="black"/>
<path d="M462.189 131.537H452.402V157.025H457.577V148.651H462.189C467.252 148.651 471.152 144.864 471.152 140.094C471.152 135.324 467.252 131.537 462.189 131.537ZM462.189 143.954H457.577V136.234H462.189C464.402 136.234 466.014 137.873 466.014 140.094C466.014 142.279 464.402 143.954 462.189 143.954Z" fill="black"/>
<path d="M477.138 149.852H491.276C491.388 149.233 491.463 148.614 491.463 147.922C491.463 142.57 487.526 138.31 481.976 138.31C476.088 138.31 472.076 142.497 472.076 147.922C472.076 153.348 476.051 157.535 482.351 157.535C485.951 157.535 488.763 156.115 490.526 153.639L486.626 151.454C485.801 152.51 484.301 153.275 482.426 153.275C479.876 153.275 477.813 152.255 477.138 149.852ZM477.063 146.211C477.626 143.881 479.388 142.534 481.976 142.534C484.001 142.534 486.026 143.589 486.626 146.211H477.063Z" fill="black"/>
<path d="M505.265 138.31C502.753 138.31 500.803 139.22 499.678 140.859V138.82H494.84V157.025H499.678V147.194C499.678 144.026 501.44 142.679 503.803 142.679C505.978 142.679 507.515 143.954 507.515 146.43V157.025H512.353V145.847C512.353 141.004 509.24 138.31 505.265 138.31Z" fill="black"/>
<path d="M530.733 138.82V140.968C529.383 139.329 527.358 138.31 524.621 138.31C519.633 138.31 515.508 142.497 515.508 147.922C515.508 153.348 519.633 157.535 524.621 157.535C527.358 157.535 529.383 156.516 530.733 154.877V157.025H535.571V138.82H530.733ZM525.521 153.057C522.558 153.057 520.346 150.981 520.346 147.922C520.346 144.864 522.558 142.788 525.521 142.788C528.521 142.788 530.733 144.864 530.733 147.922C530.733 150.981 528.521 153.057 525.521 153.057Z" fill="black"/>
<path d="M539.958 157.025H544.795V130.445H539.958V157.025Z" fill="black"/>
<path d="M559.948 143.335V138.82H555.71V133.722L550.873 135.142V138.82H547.61V143.335H550.873V150.908C550.873 155.824 553.16 157.754 559.948 157.025V152.765C557.173 152.911 555.71 152.874 555.71 150.908V143.335H559.948Z" fill="black"/>
<path d="M575.986 138.82L571.824 151.054L566.949 138.82H561.661L569.349 156.443C568.449 158.882 567.099 159.975 564.436 159.938V164.308C569.199 164.563 572.386 162.269 574.336 157.025L581.161 138.82H575.986Z" fill="black"/>
<path d="M514.456 230.359C521.169 230.359 524.956 224.97 524.956 217.105C524.956 209.241 521.169 203.852 514.456 203.852C507.781 203.852 503.956 209.241 503.956 217.105C503.956 224.97 507.781 230.359 514.456 230.359ZM514.456 225.444C510.931 225.444 509.131 222.494 509.131 217.105C509.131 211.717 510.931 208.731 514.456 208.731C517.981 208.731 519.819 211.717 519.819 217.105C519.819 222.494 517.981 225.444 514.456 225.444Z" fill="black"/>
<path d="M500.174 293.934H514.236V289.419H500.174V293.934Z" fill="black"/>
<path d="M523.982 277.185L517.082 279.551L518.357 283.848L523.307 282.501V302.673H528.482V277.185H523.982Z" fill="black"/>
<path d="M497.464 366.758H511.526V362.243H497.464V366.758Z" fill="black"/>
<path d="M514.972 375.497H532.522V370.654H522.659L527.797 365.665C530.272 363.262 532.109 360.604 532.109 357.509C532.109 352.411 527.947 349.499 523.447 349.499C519.884 349.499 516.472 351.246 514.784 354.887L519.134 357.363C519.997 355.543 521.497 354.378 523.522 354.378C525.509 354.378 526.934 355.652 526.934 357.691C526.934 359.403 525.622 361.077 523.934 362.789L514.972 371.746V375.497Z" fill="black"/>
<path d="M497.208 439.581H511.27V435.066H497.208V439.581Z" fill="black"/>
<path d="M526.941 433.173L531.853 426.983V422.832H515.353V427.529H525.628L520.453 434.083L522.441 436.996H523.566C526.266 436.996 527.766 438.416 527.766 440.455C527.766 442.531 526.266 443.914 523.566 443.914C521.091 443.914 519.628 442.859 518.991 440.965L514.566 443.441C516.066 447.082 519.628 448.83 523.566 448.83C528.516 448.83 532.941 445.917 532.941 440.455C532.941 436.705 530.353 434.156 526.941 433.173Z" fill="black"/>
<path d="M496.548 512.405H510.611V507.89H496.548V512.405Z" fill="black"/>
<path d="M534.269 512.15H531.456V506.105H526.244V512.15H519.419L528.119 495.655H522.569L513.831 512.15V516.811H526.244V521.144H531.456V516.811H534.269V512.15Z" fill="black"/>
<path d="M497.153 585.228H511.215V580.713H497.153V585.228Z" fill="black"/>
<path d="M524.148 577.764H521.448L521.786 573.176H531.873V568.479H516.986L515.936 582.643H523.886C526.436 582.643 527.936 584.063 527.936 586.102C527.936 588.177 526.436 589.561 523.736 589.561C521.111 589.561 519.648 588.469 519.011 586.502L514.586 589.015C516.086 592.729 519.648 594.477 523.736 594.477C528.686 594.477 533.111 591.564 533.111 586.102C533.111 580.64 528.948 577.764 524.148 577.764Z" fill="black"/>
<path d="M1097.06 221.111H1111.12V216.596H1097.06V221.111Z" fill="black"/>
<path d="M1124.24 212.627L1130.06 204.361H1124.13L1115.96 216.341C1114.98 217.761 1114.42 219.509 1114.42 221.475C1114.42 226.682 1118.28 230.359 1123.91 230.359C1129.53 230.359 1133.43 226.682 1133.43 221.475C1133.43 216.377 1129.68 212.772 1124.24 212.627ZM1123.91 225.626C1121.47 225.626 1119.56 224.06 1119.56 221.475C1119.56 218.89 1121.47 217.36 1123.91 217.36C1126.34 217.36 1128.29 218.926 1128.29 221.475C1128.29 224.06 1126.34 225.626 1123.91 225.626Z" fill="black"/>
<path d="M1099.55 293.934H1113.61V289.419H1099.55V293.934Z" fill="black"/>
<path d="M1113.9 277.185V281.991H1125.11L1116.48 302.673H1121.96L1130.85 281.445V277.185H1113.9Z" fill="black"/>
<path d="M1096.77 366.758H1110.83V362.243H1096.77V366.758Z" fill="black"/>
<path d="M1129.69 362.243C1131.38 361.077 1132.43 359.33 1132.43 356.963C1132.43 352.047 1128.53 349.499 1123.91 349.499C1119.3 349.499 1115.36 352.047 1115.36 356.963C1115.36 359.33 1116.45 361.077 1118.1 362.243C1115.81 363.59 1114.5 365.811 1114.5 368.396C1114.5 373.093 1118.06 376.006 1123.91 376.006C1129.73 376.006 1133.33 373.093 1133.33 368.396C1133.33 365.811 1132.01 363.59 1129.69 362.243ZM1123.91 354.232C1125.86 354.232 1127.29 355.324 1127.29 357.218C1127.29 359.075 1125.86 360.24 1123.91 360.24C1121.96 360.24 1120.54 359.075 1120.54 357.218C1120.54 355.324 1121.96 354.232 1123.91 354.232ZM1123.91 371.273C1121.44 371.273 1119.64 370.035 1119.64 367.741C1119.64 365.483 1121.44 364.245 1123.91 364.245C1126.39 364.245 1128.19 365.483 1128.19 367.741C1128.19 370.035 1126.39 371.273 1123.91 371.273Z" fill="black"/>
<path d="M1097.06 439.581H1111.12V435.066H1097.06V439.581Z" fill="black"/>
<path d="M1133.43 431.17C1133.43 425.963 1129.57 422.322 1123.91 422.322C1118.32 422.322 1114.42 425.963 1114.42 431.17C1114.42 436.304 1118.21 439.909 1123.64 440.018L1117.79 448.32H1123.72L1131.89 436.34H1131.86C1132.87 434.92 1133.43 433.136 1133.43 431.17ZM1119.56 431.17C1119.56 428.621 1121.51 427.055 1123.91 427.055C1126.38 427.055 1128.29 428.585 1128.29 431.17C1128.29 433.755 1126.38 435.321 1123.91 435.321C1121.51 435.321 1119.56 433.755 1119.56 431.17Z" fill="black"/>
<path d="M1088.36 512.405H1102.43V507.89H1088.36V512.405Z" fill="black"/>
<path d="M1112.17 495.655L1105.27 498.022L1106.55 502.319L1111.5 500.971V521.144H1116.67V495.655H1112.17Z" fill="black"/>
<path d="M1131.17 521.653C1137.89 521.653 1141.67 516.264 1141.67 508.399C1141.67 500.534 1137.89 495.146 1131.17 495.146C1124.5 495.146 1120.67 500.534 1120.67 508.399C1120.67 516.264 1124.5 521.653 1131.17 521.653ZM1131.17 516.738C1127.65 516.738 1125.85 513.788 1125.85 508.399C1125.85 503.01 1127.65 500.025 1131.17 500.025C1134.7 500.025 1136.54 503.01 1136.54 508.399C1136.54 513.788 1134.7 516.738 1131.17 516.738Z" fill="black"/>
<path d="M1062.19 131.537H1052.4V157.025H1057.58V148.651H1062.19C1067.25 148.651 1071.15 144.864 1071.15 140.094C1071.15 135.324 1067.25 131.537 1062.19 131.537ZM1062.19 143.954H1057.58V136.234H1062.19C1064.4 136.234 1066.01 137.873 1066.01 140.094C1066.01 142.279 1064.4 143.954 1062.19 143.954Z" fill="black"/>
<path d="M1077.14 149.852H1091.27C1091.39 149.233 1091.46 148.614 1091.46 147.922C1091.46 142.57 1087.52 138.31 1081.98 138.31C1076.09 138.31 1072.08 142.497 1072.08 147.922C1072.08 153.348 1076.05 157.535 1082.35 157.535C1085.95 157.535 1088.76 156.115 1090.52 153.639L1086.62 151.454C1085.8 152.51 1084.3 153.275 1082.43 153.275C1079.88 153.275 1077.81 152.255 1077.14 149.852ZM1077.06 146.211C1077.63 143.881 1079.39 142.534 1081.98 142.534C1084 142.534 1086.02 143.589 1086.62 146.211H1077.06Z" fill="black"/>
<path d="M1105.26 138.31C1102.75 138.31 1100.8 139.22 1099.68 140.859V138.82H1094.84V157.025H1099.68V147.194C1099.68 144.026 1101.44 142.679 1103.8 142.679C1105.98 142.679 1107.51 143.954 1107.51 146.43V157.025H1112.35V145.847C1112.35 141.004 1109.24 138.31 1105.26 138.31Z" fill="black"/>
<path d="M1130.73 138.82V140.968C1129.38 139.329 1127.36 138.31 1124.62 138.31C1119.63 138.31 1115.51 142.497 1115.51 147.922C1115.51 153.348 1119.63 157.535 1124.62 157.535C1127.36 157.535 1129.38 156.516 1130.73 154.877V157.025H1135.57V138.82H1130.73ZM1125.52 153.057C1122.56 153.057 1120.35 150.981 1120.35 147.922C1120.35 144.864 1122.56 142.788 1125.52 142.788C1128.52 142.788 1130.73 144.864 1130.73 147.922C1130.73 150.981 1128.52 153.057 1125.52 153.057Z" fill="black"/>
<path d="M1139.96 157.025H1144.79V130.445H1139.96V157.025Z" fill="black"/>
<path d="M1159.95 143.335V138.82H1155.71V133.722L1150.87 135.142V138.82H1147.61V143.335H1150.87V150.908C1150.87 155.824 1153.16 157.754 1159.95 157.025V152.765C1157.17 152.911 1155.71 152.874 1155.71 150.908V143.335H1159.95Z" fill="black"/>
<path d="M1175.99 138.82L1171.82 151.054L1166.95 138.82H1161.66L1169.35 156.443C1168.45 158.882 1167.1 159.975 1164.44 159.938V164.308C1169.2 164.563 1172.39 162.269 1174.34 157.025L1181.16 138.82H1175.99Z" fill="black"/>
</svg>
