<svg width="695" height="306" viewBox="0 0 695 306" fill="none" xmlns="http://www.w3.org/2000/svg">
<rect x="0.5" y="0.566162" width="694" height="304.934" rx="7.5" fill="white" stroke="black"/>
<line x1="347" y1="306" x2="347" stroke="black"/>
<line y1="44.3801" x2="694.999" y2="44.3801" stroke="black"/>
<line x1="0.000732422" y1="87.9" x2="695" y2="87.9" stroke="#FFE145"/>
<line x1="0.000732422" y1="131.42" x2="695" y2="131.42" stroke="#FFE145"/>
<line x1="0.000732422" y1="174.94" x2="695" y2="174.94" stroke="#FFE145"/>
<line x1="0.000732422" y1="218.46" x2="695" y2="218.46" stroke="#FFE145"/>
<line x1="0.000732422" y1="261.98" x2="695" y2="261.98" stroke="#FFE145"/>
<path d="M15.2692 27.0477V23.6313H21.0246V20.8025H15.2692V17.5603H21.5676V14.688H12.272V29.92H21.6762V27.0477H15.2692Z" fill="black"/>
<path d="M35.669 18.7353C34.1921 18.7353 33.1062 19.3229 32.4329 20.3021C31.8248 19.3011 30.8257 18.7353 29.4791 18.7353C28.0891 18.7353 27.0684 19.2793 26.4602 20.1933V19.04H23.6585V29.92H26.4602V23.8054C26.4602 22.1734 27.3073 21.3465 28.5018 21.3465C29.6746 21.3465 30.3262 22.1299 30.3262 23.4137V29.92H33.1279V23.8054C33.1279 22.1734 33.9098 21.3465 35.1477 21.3465C36.3205 21.3465 36.9721 22.1299 36.9721 23.4137V29.92H39.7738V23.2179C39.7738 20.4979 38.1449 18.7353 35.669 18.7353Z" fill="black"/>
<path d="M48.4735 18.7353C46.8881 18.7353 45.737 19.3229 44.9551 20.3238V19.04H42.1534V34.272H44.9551V28.6361C45.737 29.6371 46.8881 30.2246 48.4735 30.2246C51.3838 30.2246 53.7729 27.7222 53.7729 24.48C53.7729 21.2377 51.3838 18.7353 48.4735 18.7353ZM47.9523 27.5481C46.2365 27.5481 44.9551 26.3078 44.9551 24.48C44.9551 22.6521 46.2365 21.4118 47.9523 21.4118C49.6898 21.4118 50.9712 22.6521 50.9712 24.48C50.9712 26.3078 49.6898 27.5481 47.9523 27.5481Z" fill="black"/>
<path d="M61.727 21.7382V19.04H59.2728V15.9936L56.4711 16.8422V19.04H54.5816V21.7382H56.4711V26.2643C56.4711 29.2019 57.796 30.3552 61.727 29.92V27.3741C60.1199 27.4611 59.2728 27.4393 59.2728 26.2643V21.7382H61.727Z" fill="black"/>
<path d="M71.016 19.04L68.6053 26.3513L65.7818 19.04H62.7195L67.1718 29.5718C66.6506 31.0297 65.8687 31.6825 64.3267 31.6608V34.272C67.085 34.4243 68.9311 33.0534 70.0604 29.92L74.0132 19.04H71.016Z" fill="black"/>
<path d="M83.3608 22.1299C83.3608 21.5424 83.9255 21.2377 84.6205 21.2377C85.4241 21.2377 86.0322 21.6512 86.358 22.3475L88.747 21.0419C87.9 19.5405 86.3797 18.7353 84.6205 18.7353C82.3834 18.7353 80.4939 19.9757 80.4939 22.1952C80.4939 26.0249 86.0973 25.1545 86.0973 26.743C86.0973 27.3741 85.4892 27.6787 84.5987 27.6787C83.5128 27.6787 82.7744 27.1565 82.4703 26.2643L80.0378 27.6352C80.8197 29.3107 82.4269 30.2246 84.5987 30.2246C86.9226 30.2246 88.9642 29.0931 88.9642 26.743C88.9642 22.7392 83.3608 23.7401 83.3608 22.1299Z" fill="black"/>
<path d="M96.6594 21.7382V19.04H94.2052V15.9936L91.4035 16.8422V19.04H89.514V21.7382H91.4035V26.2643C91.4035 29.2019 92.7283 30.3552 96.6594 29.92V27.3741C95.0522 27.4611 94.2052 27.4393 94.2052 26.2643V21.7382H96.6594Z" fill="black"/>
<path d="M106.549 19.04V20.3238C105.767 19.3446 104.594 18.7353 103.008 18.7353C100.12 18.7353 97.7308 21.2377 97.7308 24.48C97.7308 27.7222 100.12 30.2246 103.008 30.2246C104.594 30.2246 105.767 29.6153 106.549 28.6361V29.92H109.35V19.04H106.549ZM103.53 27.5481C101.814 27.5481 100.532 26.3078 100.532 24.48C100.532 22.6521 101.814 21.4118 103.53 21.4118C105.267 21.4118 106.549 22.6521 106.549 24.48C106.549 26.3078 105.267 27.5481 103.53 27.5481Z" fill="black"/>
<path d="M118.102 21.7382V19.04H115.648V15.9936L112.846 16.8422V19.04H110.957V21.7382H112.846V26.2643C112.846 29.2019 114.171 30.3552 118.102 29.92V27.3741C116.495 27.4611 115.648 27.4393 115.648 26.2643V21.7382H118.102Z" fill="black"/>
<path d="M121.468 17.7344C122.423 17.7344 123.205 16.951 123.205 16.0153C123.205 15.0797 122.423 14.2745 121.468 14.2745C120.534 14.2745 119.752 15.0797 119.752 16.0153C119.752 16.951 120.534 17.7344 121.468 17.7344ZM120.078 29.92H122.88V19.04H120.078V29.92Z" fill="black"/>
<path d="M130.613 30.2246C133.806 30.2246 136.368 27.7222 136.368 24.48C136.368 21.2377 133.806 18.7353 130.613 18.7353C127.42 18.7353 124.879 21.2377 124.879 24.48C124.879 27.7222 127.42 30.2246 130.613 30.2246ZM130.613 27.4829C128.962 27.4829 127.681 26.2425 127.681 24.48C127.681 22.7174 128.962 21.4771 130.613 21.4771C132.285 21.4771 133.567 22.7174 133.567 24.48C133.567 26.2425 132.285 27.4829 130.613 27.4829Z" fill="black"/>
<path d="M144.377 18.7353C142.922 18.7353 141.793 19.2793 141.141 20.2585V19.04H138.339V29.92H141.141V24.0448C141.141 22.1517 142.162 21.3465 143.53 21.3465C144.79 21.3465 145.68 22.1081 145.68 23.5878V29.92H148.482V23.2397C148.482 20.3456 146.679 18.7353 144.377 18.7353Z" fill="black"/>
<path d="M153.459 22.1299C153.459 21.5424 154.024 21.2377 154.719 21.2377C155.522 21.2377 156.13 21.6512 156.456 22.3475L158.845 21.0419C157.998 19.5405 156.478 18.7353 154.719 18.7353C152.481 18.7353 150.592 19.9757 150.592 22.1952C150.592 26.0249 156.195 25.1545 156.195 26.743C156.195 27.3741 155.587 27.6787 154.697 27.6787C153.611 27.6787 152.872 27.1565 152.568 26.2643L150.136 27.6352C150.918 29.3107 152.525 30.2246 154.697 30.2246C157.021 30.2246 159.062 29.0931 159.062 26.743C159.062 22.7392 153.459 23.7401 153.459 22.1299Z" fill="black"/>
<path d="M68.3078 73.7445C72.1955 73.7445 74.389 70.524 74.389 65.8238C74.389 61.1237 72.1955 57.9032 68.3078 57.9032C64.4419 57.9032 62.2266 61.1237 62.2266 65.8238C62.2266 70.524 64.4419 73.7445 68.3078 73.7445ZM68.3078 70.8069C66.2662 70.8069 65.2237 69.0443 65.2237 65.8238C65.2237 62.6034 66.2662 60.819 68.3078 60.819C70.3494 60.819 71.4136 62.6034 71.4136 65.8238C71.4136 69.0443 70.3494 70.8069 68.3078 70.8069Z" fill="black"/>
<path d="M81.9881 68.2174H90.1326V65.5192H81.9881V68.2174Z" fill="black"/>
<path d="M109.264 68.0651H107.635V64.453H104.616V68.0651H100.664L105.702 58.2078H102.488L97.4275 68.0651V70.8504H104.616V73.4398H107.635V70.8504H109.264V68.0651Z" fill="black"/>
<path d="M85.6501 107.277H84.0863L84.2818 104.535H90.1241V101.728H81.5018L80.8937 110.193H85.4981C86.9749 110.193 87.8437 111.042 87.8437 112.26C87.8437 113.5 86.9749 114.327 85.4112 114.327C83.8909 114.327 83.0438 113.675 82.6746 112.499L80.1118 114.001C80.9806 116.22 83.0438 117.265 85.4112 117.265C88.2781 117.265 90.8409 115.524 90.8409 112.26C90.8409 108.996 88.4301 107.277 85.6501 107.277Z" fill="black"/>
<path d="M85.7059 150.188L89.0723 145.248H85.6408L80.9061 152.407C80.3414 153.256 80.0156 154.3 80.0156 155.475C80.0156 158.587 82.2527 160.785 85.5105 160.785C88.7683 160.785 91.027 158.587 91.027 155.475C91.027 152.429 88.8551 150.275 85.7059 150.188ZM85.5105 157.956C84.0987 157.956 82.9911 157.02 82.9911 155.475C82.9911 153.93 84.0987 153.016 85.5105 153.016C86.9222 153.016 88.0516 153.952 88.0516 155.475C88.0516 157.02 86.9222 157.956 85.5105 157.956Z" fill="black"/>
<path d="M80.4771 188.768V191.64H86.971L81.9756 204H85.1466L90.2939 191.314V188.768H80.4771Z" fill="black"/>
<path d="M71.944 239.6C72.9214 238.903 73.5295 237.859 73.5295 236.444C73.5295 233.507 71.2708 231.984 68.5993 231.984C65.9279 231.984 63.6475 233.507 63.6475 236.444C63.6475 237.859 64.2773 238.903 65.2329 239.6C63.9081 240.405 63.1479 241.732 63.1479 243.277C63.1479 246.084 65.2112 247.825 68.5993 247.825C71.9658 247.825 74.0508 246.084 74.0508 243.277C74.0508 241.732 73.2906 240.405 71.944 239.6ZM68.5993 234.812C69.7287 234.812 70.554 235.465 70.554 236.597C70.554 237.706 69.7287 238.403 68.5993 238.403C67.47 238.403 66.6447 237.706 66.6447 236.597C66.6447 235.465 67.47 234.812 68.5993 234.812ZM68.5993 244.996C67.1659 244.996 66.1234 244.256 66.1234 242.885C66.1234 241.536 67.1659 240.796 68.5993 240.796C70.0328 240.796 71.0753 241.536 71.0753 242.885C71.0753 244.256 70.0328 244.996 68.5993 244.996Z" fill="black"/>
<path d="M81.6167 242.298H89.7612V239.6H81.6167V242.298Z" fill="black"/>
<path d="M108.111 237.271C108.111 234.16 105.874 231.984 102.594 231.984C99.3583 231.984 97.0996 234.16 97.0996 237.271C97.0996 240.339 99.2932 242.494 102.442 242.559L99.0543 247.52H102.486L107.221 240.361H107.199C107.785 239.512 108.111 238.446 108.111 237.271ZM100.075 237.271C100.075 235.748 101.204 234.812 102.594 234.812C104.028 234.812 105.136 235.726 105.136 237.271C105.136 238.816 104.028 239.752 102.594 239.752C101.204 239.752 100.075 238.816 100.075 237.271Z" fill="black"/>
<path d="M59.4023 275.808L55.406 277.222L56.1444 279.79L59.0113 278.985V291.04H62.0085V275.808H59.4023Z" fill="black"/>
<path d="M70.4075 291.345C74.2952 291.345 76.4888 288.124 76.4888 283.424C76.4888 278.724 74.2952 275.503 70.4075 275.503C66.5416 275.503 64.3263 278.724 64.3263 283.424C64.3263 288.124 66.5416 291.345 70.4075 291.345ZM70.4075 288.407C68.366 288.407 67.3235 286.645 67.3235 283.424C67.3235 280.204 68.366 278.419 70.4075 278.419C72.4491 278.419 73.5133 280.204 73.5133 283.424C73.5133 286.645 72.4491 288.407 70.4075 288.407Z" fill="black"/>
<path d="M84.0878 285.818H92.2323V283.119H84.0878V285.818Z" fill="black"/>
<path d="M103.306 275.808L99.3101 277.222L100.049 279.79L102.915 278.985V291.04H105.913V275.808H103.306Z" fill="black"/>
<path d="M111.705 275.808L107.709 277.222L108.448 279.79L111.314 278.985V291.04H114.312V275.808H111.705Z" fill="black"/>
<path d="M406.255 58.2078L402.259 59.6222L402.997 62.1899L405.864 61.3848V73.4398H408.862V58.2078H406.255Z" fill="black"/>
<path d="M411.006 73.4398H421.17V70.5458H415.458L418.433 67.5646C419.867 66.1285 420.931 64.54 420.931 62.6904C420.931 59.644 418.52 57.9032 415.914 57.9032C413.851 57.9032 411.874 58.9477 410.897 61.1237L413.416 62.6034C413.916 61.5154 414.785 60.819 415.957 60.819C417.109 60.819 417.934 61.5806 417.934 62.7992C417.934 63.8219 417.174 64.8229 416.196 65.8456L411.006 71.1986V73.4398Z" fill="black"/>
<path d="M428.799 68.2174H436.943V65.5192H428.799V68.2174Z" fill="black"/>
<path d="M448.017 58.2078L444.021 59.6222L444.759 62.1899L447.626 61.3848V73.4398H450.623V58.2078H448.017Z" fill="black"/>
<path d="M459.848 64.3877L462.693 60.6885V58.2078H453.137V61.0149H459.088L456.09 64.9317L457.242 66.6725H457.893C459.457 66.6725 460.326 67.5211 460.326 68.7397C460.326 69.98 459.457 70.8069 457.893 70.8069C456.46 70.8069 455.613 70.1758 455.243 69.0443L452.681 70.524C453.549 72.7 455.613 73.7445 457.893 73.7445C460.76 73.7445 463.323 72.0037 463.323 68.7397C463.323 66.4984 461.824 64.9752 459.848 64.3877Z" fill="black"/>
<path d="M405.693 101.728L401.697 103.143L402.435 105.71L405.302 104.905V116.96H408.299V101.728H405.693Z" fill="black"/>
<path d="M422.15 111.586H420.521V107.973H417.502V111.586H413.549L418.588 101.728H415.373L410.313 111.586V114.371H417.502V116.96H420.521V114.371H422.15V111.586Z" fill="black"/>
<path d="M429.297 111.738H437.441V109.04H429.297V111.738Z" fill="black"/>
<path d="M448.515 101.728L444.519 103.143L445.258 105.71L448.124 104.905V116.96H451.122V101.728H448.515Z" fill="black"/>
<path d="M458.761 107.277H457.197L457.392 104.535H463.235V101.728H454.612L454.004 110.193H458.608C460.085 110.193 460.954 111.042 460.954 112.26C460.954 113.5 460.085 114.327 458.522 114.327C457.001 114.327 456.154 113.675 455.785 112.499L453.222 114.001C454.091 116.22 456.154 117.265 458.522 117.265C461.389 117.265 463.951 115.524 463.951 112.26C463.951 108.996 461.541 107.277 458.761 107.277Z" fill="black"/>
<path d="M406.616 145.248L402.619 146.663L403.358 149.23L406.225 148.425V160.48H409.222V145.248H406.616Z" fill="black"/>
<path d="M416.969 150.188L420.336 145.248H416.904L412.17 152.407C411.605 153.256 411.279 154.3 411.279 155.475C411.279 158.587 413.516 160.785 416.774 160.785C420.032 160.785 422.29 158.587 422.29 155.475C422.29 152.429 420.119 150.275 416.969 150.188ZM416.774 157.956C415.362 157.956 414.255 157.02 414.255 155.475C414.255 153.93 415.362 153.016 416.774 153.016C418.186 153.016 419.315 153.952 419.315 155.475C419.315 157.02 418.186 157.956 416.774 157.956Z" fill="black"/>
<path d="M429.626 155.258H437.77V152.56H429.626V155.258Z" fill="black"/>
<path d="M448.844 145.248L444.848 146.663L445.586 149.23L448.453 148.425V160.48H451.45V145.248H448.844Z" fill="black"/>
<path d="M453.29 145.248V148.12H459.784L454.789 160.48H457.96L463.107 147.794V145.248H453.29Z" fill="black"/>
<path d="M405.767 188.768L401.771 190.182L402.509 192.75L405.376 191.945V204H408.373V188.768H405.767Z" fill="black"/>
<path d="M419.444 196.079C420.421 195.383 421.029 194.338 421.029 192.924C421.029 189.986 418.771 188.463 416.099 188.463C413.428 188.463 411.147 189.986 411.147 192.924C411.147 194.338 411.777 195.383 412.733 196.079C411.408 196.884 410.648 198.212 410.648 199.757C410.648 202.564 412.711 204.304 416.099 204.304C419.466 204.304 421.551 202.564 421.551 199.757C421.551 198.212 420.79 196.884 419.444 196.079ZM416.099 191.292C417.229 191.292 418.054 191.945 418.054 193.076C418.054 194.186 417.229 194.882 416.099 194.882C414.97 194.882 414.145 194.186 414.145 193.076C414.145 191.945 414.97 191.292 416.099 191.292ZM416.099 201.476C414.666 201.476 413.623 200.736 413.623 199.365C413.623 198.016 414.666 197.276 416.099 197.276C417.533 197.276 418.575 198.016 418.575 199.365C418.575 200.736 417.533 201.476 416.099 201.476Z" fill="black"/>
<path d="M429.117 198.777H437.261V196.079H429.117V198.777Z" fill="black"/>
<path d="M448.335 188.768L444.339 190.182L445.077 192.75L447.944 191.945V204H450.941V188.768H448.335Z" fill="black"/>
<path d="M464.01 193.751C464.01 190.639 461.773 188.463 458.493 188.463C455.257 188.463 452.999 190.639 452.999 193.751C452.999 196.819 455.192 198.973 458.341 199.038L454.953 204H458.385L463.119 196.841H463.098C463.684 195.992 464.01 194.926 464.01 193.751ZM455.974 193.751C455.974 192.228 457.103 191.292 458.493 191.292C459.927 191.292 461.034 192.206 461.034 193.751C461.034 195.296 459.927 196.231 458.493 196.231C457.103 196.231 455.974 195.296 455.974 193.751Z" fill="black"/>
<path d="M415.077 247.52H425.242V244.626H419.53L422.505 241.645C423.939 240.209 425.003 238.62 425.003 236.771C425.003 233.724 422.592 231.984 419.986 231.984C417.922 231.984 415.946 233.028 414.969 235.204L417.488 236.684C417.988 235.596 418.856 234.899 420.029 234.899C421.18 234.899 422.006 235.661 422.006 236.88C422.006 237.902 421.245 238.903 420.268 239.926L415.077 245.279V247.52Z" fill="black"/>
<path d="M432.658 247.825C436.546 247.825 438.74 244.604 438.74 239.904C438.74 235.204 436.546 231.984 432.658 231.984C428.792 231.984 426.577 235.204 426.577 239.904C426.577 244.604 428.792 247.825 432.658 247.825ZM432.658 244.887C430.617 244.887 429.574 243.125 429.574 239.904C429.574 236.684 430.617 234.899 432.658 234.899C434.7 234.899 435.764 236.684 435.764 239.904C435.764 243.125 434.7 244.887 432.658 244.887Z" fill="black"/>
<path d="M450.422 238.577H446.838V235.008H444.21V238.577H440.648V241.21H444.21V244.8H446.838V241.21H450.422V238.577Z" fill="black"/>
<path d="M362.769 27.0477V23.6313H368.524V20.8025H362.769V17.5603H369.067V14.688H359.771V29.92H369.176V27.0477H362.769Z" fill="black"/>
<path d="M383.168 18.7353C381.692 18.7353 380.606 19.3229 379.932 20.3021C379.324 19.3011 378.325 18.7353 376.979 18.7353C375.589 18.7353 374.568 19.2793 373.96 20.1933V19.04H371.158V29.92H373.96V23.8054C373.96 22.1734 374.807 21.3465 376.001 21.3465C377.174 21.3465 377.826 22.1299 377.826 23.4137V29.92H380.627V23.8054C380.627 22.1734 381.409 21.3465 382.647 21.3465C383.82 21.3465 384.472 22.1299 384.472 23.4137V29.92H387.273V23.2179C387.273 20.4979 385.644 18.7353 383.168 18.7353Z" fill="black"/>
<path d="M395.973 18.7353C394.388 18.7353 393.236 19.3229 392.455 20.3238V19.04H389.653V34.272H392.455V28.6361C393.236 29.6371 394.388 30.2246 395.973 30.2246C398.883 30.2246 401.272 27.7222 401.272 24.48C401.272 21.2377 398.883 18.7353 395.973 18.7353ZM395.452 27.5481C393.736 27.5481 392.455 26.3078 392.455 24.48C392.455 22.6521 393.736 21.4118 395.452 21.4118C397.189 21.4118 398.471 22.6521 398.471 24.48C398.471 26.3078 397.189 27.5481 395.452 27.5481Z" fill="black"/>
<path d="M409.227 21.7382V19.04H406.772V15.9936L403.971 16.8422V19.04H402.081V21.7382H403.971V26.2643C403.971 29.2019 405.295 30.3552 409.227 29.92V27.3741C407.619 27.4611 406.772 27.4393 406.772 26.2643V21.7382H409.227Z" fill="black"/>
<path d="M418.516 19.04L416.105 26.3513L413.281 19.04H410.219L414.671 29.5718C414.15 31.0297 413.368 31.6825 411.826 31.6608V34.272C414.584 34.4243 416.431 33.0534 417.56 29.92L421.513 19.04H418.516Z" fill="black"/>
<path d="M430.86 22.1299C430.86 21.5424 431.425 21.2377 432.12 21.2377C432.924 21.2377 433.532 21.6512 433.857 22.3475L436.247 21.0419C435.4 19.5405 433.879 18.7353 432.12 18.7353C429.883 18.7353 427.993 19.9757 427.993 22.1952C427.993 26.0249 433.597 25.1545 433.597 26.743C433.597 27.3741 432.989 27.6787 432.098 27.6787C431.012 27.6787 430.274 27.1565 429.97 26.2643L427.537 27.6352C428.319 29.3107 429.926 30.2246 432.098 30.2246C434.422 30.2246 436.464 29.0931 436.464 26.743C436.464 22.7392 430.86 23.7401 430.86 22.1299Z" fill="black"/>
<path d="M444.159 21.7382V19.04H441.705V15.9936L438.903 16.8422V19.04H437.013V21.7382H438.903V26.2643C438.903 29.2019 440.228 30.3552 444.159 29.92V27.3741C442.552 27.4611 441.705 27.4393 441.705 26.2643V21.7382H444.159Z" fill="black"/>
<path d="M454.048 19.04V20.3238C453.266 19.3446 452.093 18.7353 450.508 18.7353C447.619 18.7353 445.23 21.2377 445.23 24.48C445.23 27.7222 447.619 30.2246 450.508 30.2246C452.093 30.2246 453.266 29.6153 454.048 28.6361V29.92H456.85V19.04H454.048ZM451.029 27.5481C449.313 27.5481 448.032 26.3078 448.032 24.48C448.032 22.6521 449.313 21.4118 451.029 21.4118C452.767 21.4118 454.048 22.6521 454.048 24.48C454.048 26.3078 452.767 27.5481 451.029 27.5481Z" fill="black"/>
<path d="M465.602 21.7382V19.04H463.148V15.9936L460.346 16.8422V19.04H458.456V21.7382H460.346V26.2643C460.346 29.2019 461.671 30.3552 465.602 29.92V27.3741C463.995 27.4611 463.148 27.4393 463.148 26.2643V21.7382H465.602Z" fill="black"/>
<path d="M468.967 17.7344C469.923 17.7344 470.705 16.951 470.705 16.0153C470.705 15.0797 469.923 14.2745 468.967 14.2745C468.033 14.2745 467.252 15.0797 467.252 16.0153C467.252 16.951 468.033 17.7344 468.967 17.7344ZM467.577 29.92H470.379V19.04H467.577V29.92Z" fill="black"/>
<path d="M478.112 30.2246C481.305 30.2246 483.868 27.7222 483.868 24.48C483.868 21.2377 481.305 18.7353 478.112 18.7353C474.92 18.7353 472.379 21.2377 472.379 24.48C472.379 27.7222 474.92 30.2246 478.112 30.2246ZM478.112 27.4829C476.462 27.4829 475.18 26.2425 475.18 24.48C475.18 22.7174 476.462 21.4771 478.112 21.4771C479.785 21.4771 481.066 22.7174 481.066 24.48C481.066 26.2425 479.785 27.4829 478.112 27.4829Z" fill="black"/>
<path d="M491.877 18.7353C490.422 18.7353 489.292 19.2793 488.641 20.2585V19.04H485.839V29.92H488.641V24.0448C488.641 22.1517 489.661 21.3465 491.03 21.3465C492.289 21.3465 493.18 22.1081 493.18 23.5878V29.92H495.982V23.2397C495.982 20.3456 494.179 18.7353 491.877 18.7353Z" fill="black"/>
<path d="M500.958 22.1299C500.958 21.5424 501.523 21.2377 502.218 21.2377C503.022 21.2377 503.63 21.6512 503.956 22.3475L506.345 21.0419C505.498 19.5405 503.977 18.7353 502.218 18.7353C499.981 18.7353 498.091 19.9757 498.091 22.1952C498.091 26.0249 503.695 25.1545 503.695 26.743C503.695 27.3741 503.087 27.6787 502.196 27.6787C501.11 27.6787 500.372 27.1565 500.068 26.2643L497.635 27.6352C498.417 29.3107 500.024 30.2246 502.196 30.2246C504.52 30.2246 506.562 29.0931 506.562 26.743C506.562 22.7392 500.958 23.7401 500.958 22.1299Z" fill="black"/>
<path d="M267.685 14.6878H262.016V29.9198H265.013V24.915H267.685C270.617 24.915 272.875 22.652 272.875 19.8014C272.875 16.9509 270.617 14.6878 267.685 14.6878ZM267.685 22.108H265.013V17.4949H267.685C268.966 17.4949 269.9 18.4741 269.9 19.8014C269.9 21.107 268.966 22.108 267.685 22.108Z" fill="black"/>
<path d="M276.343 25.6331H284.531C284.596 25.2632 284.639 24.8933 284.639 24.4798C284.639 21.2811 282.359 18.7352 279.144 18.7352C275.735 18.7352 273.411 21.2376 273.411 24.4798C273.411 27.7221 275.713 30.2245 279.362 30.2245C281.447 30.2245 283.075 29.3758 284.096 27.8962L281.838 26.5906C281.36 27.2216 280.491 27.6786 279.405 27.6786C277.928 27.6786 276.734 27.0693 276.343 25.6331ZM276.299 23.4571C276.625 22.0645 277.646 21.2594 279.144 21.2594C280.317 21.2594 281.49 21.8904 281.838 23.4571H276.299Z" fill="black"/>
<path d="M292.633 18.7352C291.178 18.7352 290.048 19.2792 289.397 20.2584V19.0398H286.595V29.9198H289.397V24.0446C289.397 22.1515 290.418 21.3464 291.786 21.3464C293.046 21.3464 293.936 22.108 293.936 23.5877V29.9198H296.738V23.2395C296.738 20.3454 294.935 18.7352 292.633 18.7352Z" fill="black"/>
<path d="M307.383 19.0398V20.3237C306.601 19.3445 305.428 18.7352 303.843 18.7352C300.954 18.7352 298.565 21.2376 298.565 24.4798C298.565 27.7221 300.954 30.2245 303.843 30.2245C305.428 30.2245 306.601 29.6152 307.383 28.636V29.9198H310.185V19.0398H307.383ZM304.364 27.548C302.648 27.548 301.367 26.3077 301.367 24.4798C301.367 22.652 302.648 21.4117 304.364 21.4117C306.102 21.4117 307.383 22.652 307.383 24.4798C307.383 26.3077 306.102 27.548 304.364 27.548Z" fill="black"/>
<path d="M312.725 29.9198H315.527V14.035H312.725V29.9198Z" fill="black"/>
<path d="M324.303 21.7381V19.0398H321.849V15.9934L319.047 16.8421V19.0398H317.158V21.7381H319.047V26.2642C319.047 29.2018 320.372 30.355 324.303 29.9198V27.3739C322.696 27.461 321.849 27.4392 321.849 26.2642V21.7381H324.303Z" fill="black"/>
<path d="M333.592 19.0398L331.181 26.3512L328.358 19.0398H325.296L329.748 29.5717C329.227 31.0296 328.445 31.6824 326.903 31.6606V34.2718C329.661 34.4242 331.507 33.0533 332.636 29.9198L336.589 19.0398H333.592Z" fill="black"/>
<path d="M297.956 73.7445C301.843 73.7445 304.037 70.524 304.037 65.8238C304.037 61.1237 301.843 57.9032 297.956 57.9032C294.09 57.9032 291.875 61.1237 291.875 65.8238C291.875 70.524 294.09 73.7445 297.956 73.7445ZM297.956 70.8069C295.914 70.8069 294.872 69.0443 294.872 65.8238C294.872 62.6034 295.914 60.819 297.956 60.819C299.997 60.819 301.062 62.6034 301.062 65.8238C301.062 69.0443 299.997 70.8069 297.956 70.8069Z" fill="black"/>
<path d="M289.684 111.738H297.829V109.04H289.684V111.738Z" fill="black"/>
<path d="M303.473 101.728L299.477 103.143L300.215 105.71L303.082 104.905V116.96H306.079V101.728H303.473Z" fill="black"/>
<path d="M288.115 155.257H296.259V152.559H288.115V155.257Z" fill="black"/>
<path d="M298.255 160.48H308.419V157.586H302.707L305.682 154.605C307.116 153.169 308.18 151.58 308.18 149.73C308.18 146.684 305.769 144.943 303.163 144.943C301.1 144.943 299.123 145.988 298.146 148.164L300.665 149.643C301.165 148.555 302.034 147.859 303.206 147.859C304.358 147.859 305.183 148.621 305.183 149.839C305.183 150.862 304.423 151.863 303.445 152.886L298.255 158.239V160.48Z" fill="black"/>
<path d="M287.966 198.777H296.111V196.079H287.966V198.777Z" fill="black"/>
<path d="M305.187 194.948L308.032 191.248V188.768H298.476V191.575H304.427L301.429 195.492L302.58 197.232H303.232C304.796 197.232 305.665 198.081 305.665 199.3C305.665 200.54 304.796 201.367 303.232 201.367C301.799 201.367 300.952 200.736 300.582 199.604L298.02 201.084C298.888 203.26 300.952 204.304 303.232 204.304C306.099 204.304 308.662 202.564 308.662 199.3C308.662 197.058 307.163 195.535 305.187 194.948Z" fill="black"/>
<path d="M287.584 242.297H295.729V239.599H287.584V242.297Z" fill="black"/>
<path d="M309.431 242.145H307.802V238.533H304.783V242.145H300.83L305.869 232.288H302.655L297.594 242.145V244.93H304.783V247.52H307.802V244.93H309.431V242.145Z" fill="black"/>
<path d="M287.934 285.817H296.079V283.119H287.934V285.817Z" fill="black"/>
<path d="M303.569 281.356H302.005L302.201 278.615H308.043V275.807H299.421L298.813 284.272H303.417C304.894 284.272 305.763 285.121 305.763 286.339C305.763 287.58 304.894 288.407 303.33 288.407C301.81 288.407 300.963 287.754 300.594 286.579L298.031 288.08C298.899 290.3 300.963 291.344 303.33 291.344C306.197 291.344 308.76 289.603 308.76 286.339C308.76 283.075 306.349 281.356 303.569 281.356Z" fill="black"/>
<path d="M635.381 68.218H643.526V65.5197H635.381V68.218Z" fill="black"/>
<path d="M651.125 63.1479L654.491 58.2084H651.06L646.325 65.3674C645.76 66.2161 645.435 67.2605 645.435 68.4356C645.435 71.5473 647.672 73.745 650.929 73.745C654.187 73.745 656.446 71.5473 656.446 68.4356C656.446 65.3892 654.274 63.2349 651.125 63.1479ZM650.929 70.9162C649.518 70.9162 648.41 69.9805 648.41 68.4356C648.41 66.8906 649.518 65.9767 650.929 65.9767C652.341 65.9767 653.471 66.9124 653.471 68.4356C653.471 69.9805 652.341 70.9162 650.929 70.9162Z" fill="black"/>
<path d="M636.823 111.738H644.968V109.04H636.823V111.738Z" fill="black"/>
<path d="M645.132 101.728V104.601H651.626L646.631 116.96H649.802L654.949 104.274V101.728H645.132Z" fill="black"/>
<path d="M635.211 155.257H643.356V152.559H635.211V155.257Z" fill="black"/>
<path d="M654.278 152.559C655.255 151.863 655.863 150.818 655.863 149.404C655.863 146.466 653.605 144.943 650.933 144.943C648.262 144.943 645.981 146.466 645.981 149.404C645.981 150.818 646.611 151.863 647.567 152.559C646.242 153.364 645.482 154.692 645.482 156.237C645.482 159.044 647.545 160.785 650.933 160.785C654.3 160.785 656.385 159.044 656.385 156.237C656.385 154.692 655.624 153.364 654.278 152.559ZM650.933 147.772C652.063 147.772 652.888 148.425 652.888 149.556C652.888 150.666 652.063 151.362 650.933 151.362C649.804 151.362 648.979 150.666 648.979 149.556C648.979 148.425 649.804 147.772 650.933 147.772ZM650.933 157.956C649.5 157.956 648.457 157.216 648.457 155.845C648.457 154.496 649.5 153.756 650.933 153.756C652.367 153.756 653.409 154.496 653.409 155.845C653.409 157.216 652.367 157.956 650.933 157.956Z" fill="black"/>
<path d="M635.381 198.777H643.526V196.079H635.381V198.777Z" fill="black"/>
<path d="M656.446 193.751C656.446 190.639 654.209 188.463 650.929 188.463C647.693 188.463 645.435 190.639 645.435 193.751C645.435 196.819 647.628 198.973 650.777 199.038L647.389 204H650.821L655.556 196.841H655.534C656.12 195.992 656.446 194.926 656.446 193.751ZM648.41 193.751C648.41 192.228 649.539 191.292 650.929 191.292C652.363 191.292 653.471 192.206 653.471 193.751C653.471 195.296 652.363 196.231 650.929 196.231C649.539 196.231 648.41 195.296 648.41 193.751Z" fill="black"/>
<path d="M630.344 242.298H638.488V239.6H630.344V242.298Z" fill="black"/>
<path d="M644.132 232.288L640.136 233.703L640.875 236.27L643.741 235.465V247.52H646.739V232.288H644.132Z" fill="black"/>
<path d="M655.138 247.825C659.025 247.825 661.219 244.604 661.219 239.904C661.219 235.204 659.025 231.984 655.138 231.984C651.272 231.984 649.056 235.204 649.056 239.904C649.056 244.604 651.272 247.825 655.138 247.825ZM655.138 244.887C653.096 244.887 652.054 243.125 652.054 239.904C652.054 236.684 653.096 234.899 655.138 234.899C657.179 234.899 658.243 236.684 658.243 239.904C658.243 243.125 657.179 244.887 655.138 244.887Z" fill="black"/>
<path d="M615.184 14.6878H609.515V29.9198H612.513V24.915H615.184C618.116 24.915 620.375 22.652 620.375 19.8014C620.375 16.9509 618.116 14.6878 615.184 14.6878ZM615.184 22.108H612.513V17.4949H615.184C616.465 17.4949 617.399 18.4741 617.399 19.8014C617.399 21.107 616.465 22.108 615.184 22.108Z" fill="black"/>
<path d="M623.842 25.6331H632.03C632.095 25.2632 632.138 24.8933 632.138 24.4798C632.138 21.2811 629.858 18.7352 626.644 18.7352C623.234 18.7352 620.91 21.2376 620.91 24.4798C620.91 27.7221 623.212 30.2245 626.861 30.2245C628.946 30.2245 630.575 29.3758 631.596 27.8962L629.337 26.5906C628.859 27.2216 627.99 27.6786 626.904 27.6786C625.427 27.6786 624.233 27.0693 623.842 25.6331ZM623.799 23.4571C624.124 22.0645 625.145 21.2594 626.644 21.2594C627.816 21.2594 628.989 21.8904 629.337 23.4571H623.799Z" fill="black"/>
<path d="M640.132 18.7352C638.677 18.7352 637.548 19.2792 636.896 20.2584V19.0398H634.094V29.9198H636.896V24.0446C636.896 22.1515 637.917 21.3464 639.285 21.3464C640.545 21.3464 641.435 22.108 641.435 23.5877V29.9198H644.237V23.2395C644.237 20.3454 642.434 18.7352 640.132 18.7352Z" fill="black"/>
<path d="M654.882 19.0398V20.3237C654.101 19.3445 652.928 18.7352 651.342 18.7352C648.454 18.7352 646.065 21.2376 646.065 24.4798C646.065 27.7221 648.454 30.2245 651.342 30.2245C652.928 30.2245 654.101 29.6152 654.882 28.636V29.9198H657.684V19.0398H654.882ZM651.864 27.548C650.148 27.548 648.866 26.3077 648.866 24.4798C648.866 22.652 650.148 21.4117 651.864 21.4117C653.601 21.4117 654.882 22.652 654.882 24.4798C654.882 26.3077 653.601 27.548 651.864 27.548Z" fill="black"/>
<path d="M660.225 29.9198H663.026V14.035H660.225V29.9198Z" fill="black"/>
<path d="M671.802 21.7381V19.0398H669.348V15.9934L666.546 16.8421V19.0398H664.657V21.7381H666.546V26.2642C666.546 29.2018 667.871 30.355 671.802 29.9198V27.3739C670.195 27.461 669.348 27.4392 669.348 26.2642V21.7381H671.802Z" fill="black"/>
<path d="M681.091 19.0398L678.681 26.3512L675.857 19.0398H672.795L677.247 29.5717C676.726 31.0296 675.944 31.6824 674.402 31.6606V34.2718C677.16 34.4242 679.006 33.0533 680.136 29.9198L684.089 19.0398H681.091Z" fill="black"/>
</svg>
