<svg width="138" height="202" viewBox="0 0 138 202" fill="none" xmlns="http://www.w3.org/2000/svg">
<path d="M1 9C1 4.58173 4.58172 1 9 1H129C133.418 1 137 4.58172 137 9V193C137 197.418 133.418 201 129 201H9C4.58172 201 1 197.418 1 193V9Z" fill="white"/>
<path fill-rule="evenodd" clip-rule="evenodd" d="M49 17H113C117.418 17 121 20.5817 121 25V101H89V185H25C20.5817 185 17 181.418 17 177V101H49V17Z" fill="#FF7A50"/>
<circle cx="69" cy="101" r="36" fill="black"/>
<path d="M55.637 120H81.845V112.552H67.117L74.789 104.88C78.485 101.184 81.229 97.096 81.229 92.336C81.229 84.496 75.013 80.016 68.293 80.016C62.973 80.016 57.877 82.704 55.357 88.304L61.853 92.112C63.141 89.312 65.381 87.52 68.405 87.52C71.373 87.52 73.501 89.48 73.501 92.616C73.501 95.248 71.541 97.824 69.021 100.456L55.637 114.232V120Z" fill="white"/>
<path d="M41.336 65.4813C41.336 61.9053 39.416 59.3853 36.272 59.3853C32.84 59.3853 31.952 62.2173 31.112 64.8813C30.344 67.4253 29.792 68.0733 28.76 68.0733C27.8 68.0733 27.08 67.2573 27.08 65.8653C27.08 64.1613 27.968 63.2493 29.24 62.6493L27.632 59.8653C25.28 60.9933 23.864 63.1053 23.864 65.8653C23.864 68.7453 25.688 71.3853 28.856 71.3853C32.048 71.3853 33.128 68.8893 33.872 66.3213C34.592 63.8253 35.072 62.6973 36.32 62.6973C37.256 62.6973 38.096 63.3933 38.096 65.3853C38.096 67.4733 37.088 68.6493 35.528 69.2493L37.184 72.0813C39.68 71.1693 41.336 68.9133 41.336 65.4813Z" fill="black"/>
<path d="M41 46.3052L34.928 51.2732L29 46.4492V50.1452L34.28 54.2732H24.2V57.3692H41V54.2732H35.552L41 49.9052V46.3052Z" fill="black"/>
<path d="M27.56 43.2238C27.56 42.1678 26.696 41.3038 25.664 41.3038C24.632 41.3038 23.744 42.1678 23.744 43.2238C23.744 44.2558 24.632 45.1198 25.664 45.1198C26.696 45.1198 27.56 44.2558 27.56 43.2238ZM41 44.7598V41.6638H29V44.7598H41Z" fill="black"/>
<path d="M28.664 31.8461C28.664 33.5981 29.312 34.8701 30.416 35.7341H29L29 38.8301H45.8V35.7341H39.584C40.688 34.8701 41.336 33.5981 41.336 31.8461C41.336 28.6301 38.576 25.9901 35 25.9901C31.424 25.9901 28.664 28.6301 28.664 31.8461ZM38.384 32.4221C38.384 34.3181 37.016 35.7341 35 35.7341C32.984 35.7341 31.616 34.3181 31.616 32.4221C31.616 30.5021 32.984 29.0861 35 29.0861C37.016 29.0861 38.384 30.5021 38.384 32.4221Z" fill="black"/>
<path d="M96.664 136.519C96.664 140.095 98.584 142.615 101.728 142.615C105.16 142.615 106.048 139.783 106.888 137.119C107.656 134.575 108.208 133.927 109.24 133.927C110.2 133.927 110.92 134.743 110.92 136.135C110.92 137.839 110.032 138.751 108.76 139.351L110.368 142.135C112.72 141.007 114.136 138.895 114.136 136.135C114.136 133.255 112.312 130.615 109.144 130.615C105.952 130.615 104.872 133.111 104.128 135.679C103.408 138.175 102.928 139.303 101.68 139.303C100.744 139.303 99.904 138.607 99.904 136.615C99.904 134.527 100.912 133.351 102.472 132.751L100.816 129.919C98.32 130.831 96.664 133.087 96.664 136.519Z" fill="black"/>
<path d="M97 155.695L103.072 150.727L109 155.551V151.855L103.72 147.727H113.8V144.631H97V147.727H102.448L97 152.095V155.695Z" fill="black"/>
<path d="M110.44 158.776C110.44 159.832 111.304 160.696 112.336 160.696C113.368 160.696 114.256 159.832 114.256 158.776C114.256 157.744 113.368 156.88 112.336 156.88C111.304 156.88 110.44 157.744 110.44 158.776ZM97 157.24V160.336H109V157.24H97Z" fill="black"/>
<path d="M109.336 170.154C109.336 168.402 108.688 167.13 107.584 166.266H109V163.17H92.2V166.266H98.416C97.312 167.13 96.664 168.402 96.664 170.154C96.664 173.37 99.424 176.01 103 176.01C106.576 176.01 109.336 173.37 109.336 170.154ZM99.616 169.578C99.616 167.682 100.984 166.266 103 166.266C105.016 166.266 106.384 167.682 106.384 169.578C106.384 171.498 105.016 172.914 103 172.914C100.984 172.914 99.616 171.498 99.616 169.578Z" fill="black"/>
<path d="M9 1.5H129V0.5H9V1.5ZM136.5 9V193H137.5V9H136.5ZM129 200.5H9V201.5H129V200.5ZM1.5 193V9H0.5V193H1.5ZM9 200.5C4.85786 200.5 1.5 197.142 1.5 193H0.5C0.5 197.694 4.30558 201.5 9 201.5V200.5ZM136.5 193C136.5 197.142 133.142 200.5 129 200.5V201.5C133.694 201.5 137.5 197.694 137.5 193H136.5ZM129 1.5C133.142 1.5 136.5 4.85786 136.5 9H137.5C137.5 4.30558 133.694 0.5 129 0.5V1.5ZM9 0.5C4.30558 0.5 0.5 4.30558 0.5 9H1.5C1.5 4.85787 4.85786 1.5 9 1.5V0.5Z" fill="#D2D2D2"/>
</svg>
