<svg width="138" height="202" viewBox="0 0 138 202" fill="none" xmlns="http://www.w3.org/2000/svg">
<path d="M1 9C1 4.58173 4.58172 1 9 1H129C133.418 1 137 4.58172 137 9V193C137 197.418 133.418 201 129 201H9C4.58172 201 1 197.418 1 193V9Z" fill="white"/>
<rect x="17" y="17" width="104" height="168" rx="8" fill="#047BFD"/>
<circle cx="69" cy="101" r="36" fill="black"/>
<path d="M69.3402 95.08H65.3082L65.8122 88.024H80.8762V80.8H58.6442L57.0762 102.584H68.9482C72.7562 102.584 74.9962 104.768 74.9962 107.904C74.9962 111.096 72.7562 113.224 68.7242 113.224C64.8042 113.224 62.6202 111.544 61.6682 108.52L55.0602 112.384C57.3002 118.096 62.6202 120.784 68.7242 120.784C76.1162 120.784 82.7242 116.304 82.7242 107.904C82.7242 99.504 76.5082 95.08 69.3402 95.08Z" fill="white"/>
<path d="M9 1.5H129V0.5H9V1.5ZM136.5 9V193H137.5V9H136.5ZM129 200.5H9V201.5H129V200.5ZM1.5 193V9H0.5V193H1.5ZM9 200.5C4.85786 200.5 1.5 197.142 1.5 193H0.5C0.5 197.694 4.30558 201.5 9 201.5V200.5ZM136.5 193C136.5 197.142 133.142 200.5 129 200.5V201.5C133.694 201.5 137.5 197.694 137.5 193H136.5ZM129 1.5C133.142 1.5 136.5 4.85786 136.5 9H137.5C137.5 4.30558 133.694 0.5 129 0.5V1.5ZM9 0.5C4.30558 0.5 0.5 4.30558 0.5 9H1.5C1.5 4.85787 4.85786 1.5 9 1.5V0.5Z" fill="#D2D2D2"/>
</svg>
