<svg width="138" height="202" viewBox="0 0 138 202" fill="none" xmlns="http://www.w3.org/2000/svg">
<path d="M1 9C1 4.58173 4.58172 1 9 1H129C133.418 1 137 4.58172 137 9V193C137 197.418 133.418 201 129 201H9C4.58172 201 1 197.418 1 193V9Z" fill="white"/>
<path fill-rule="evenodd" clip-rule="evenodd" d="M49 17H113C117.418 17 121 20.5817 121 25V101H89V185H25C20.5817 185 17 181.418 17 177V101H49V17Z" fill="#047BFD"/>
<circle cx="69" cy="101" r="36" fill="black"/>
<path d="M69.4834 93.512L78.1634 80.8H69.3154L57.1074 99.224C55.6514 101.408 54.8114 104.096 54.8114 107.12C54.8114 115.128 60.5794 120.784 68.9794 120.784C77.3794 120.784 83.2034 115.128 83.2034 107.12C83.2034 99.28 77.6034 93.736 69.4834 93.512ZM68.9794 113.504C65.3394 113.504 62.4834 111.096 62.4834 107.12C62.4834 103.144 65.3394 100.792 68.9794 100.792C72.6194 100.792 75.5314 103.2 75.5314 107.12C75.5314 111.096 72.6194 113.504 68.9794 113.504Z" fill="white"/>
<path d="M53.5234 125.6H84.4914V128.4H53.5234V125.6Z" fill="white"/>
<path d="M36.8482 78.7284V77.1571L33.9865 78.7916C33.5854 77.948 32.729 77.368 31.7751 77.368C30.3875 77.368 29.2602 78.4647 29.2602 79.8251V82.7778H36.8482V81.3225H34.2141V80.2152L36.8482 78.7284ZM30.6585 81.3225V79.8251C30.6585 79.2767 31.1463 78.8233 31.7751 78.8233C32.4038 78.8233 32.9024 79.2767 32.9024 79.8251V81.3225H30.6585Z" fill="black"/>
<path d="M34.7127 75.4818V71.5062C34.5285 71.4746 34.3442 71.4535 34.1382 71.4535C32.5447 71.4535 31.2764 72.5607 31.2764 74.1214C31.2764 75.7771 32.523 76.9054 34.1382 76.9054C35.7534 76.9054 37 75.7876 37 74.016C37 73.0036 36.5772 72.2127 35.8401 71.7171L35.1897 72.8138C35.5041 73.0458 35.7317 73.4676 35.7317 73.9949C35.7317 74.712 35.4282 75.292 34.7127 75.4818ZM33.6287 75.5029C32.935 75.3447 32.5339 74.8491 32.5339 74.1214C32.5339 73.552 32.8482 72.9825 33.6287 72.8138V75.5029Z" fill="black"/>
<path d="M34.2466 70.4405V66.486H32.9024V70.4405H34.2466Z" fill="black"/>
<path d="M37 62.7093C37 61.138 36.1328 60.0308 34.7127 60.0308C33.1626 60.0308 32.7615 61.2751 32.3821 62.4457C32.0352 63.5635 31.7859 63.8482 31.3198 63.8482C30.8862 63.8482 30.561 63.4897 30.561 62.878C30.561 62.1293 30.9621 61.7286 31.5366 61.465L30.8103 60.2417C29.748 60.7373 29.1084 61.6653 29.1084 62.878C29.1084 64.1435 29.9322 65.3035 31.3631 65.3035C32.8049 65.3035 33.2927 64.2067 33.6287 63.0784C33.9539 61.9817 34.1707 61.486 34.7344 61.486C35.1572 61.486 35.5366 61.7919 35.5366 62.6671C35.5366 63.5846 35.0813 64.1013 34.3767 64.3649L35.1247 65.6093C36.252 65.2086 37 64.2173 37 62.7093Z" fill="black"/>
<path d="M31.2764 56.2133C31.2764 56.9198 31.5474 57.4682 32.0352 57.7845H29.2602V59.1449H36.8482V57.7845H33.9214C32.9783 57.7845 32.5772 57.2889 32.5772 56.6246C32.5772 56.0129 32.9566 55.5806 33.6938 55.5806H36.8482V54.2202H33.5203C32.0786 54.2202 31.2764 55.0955 31.2764 56.2133Z" fill="black"/>
<path d="M31.4282 49.5787H34.355C35.2981 49.5787 35.6992 50.0743 35.6992 50.7387C35.6992 51.3503 35.3198 51.7827 34.5827 51.7827H31.4282V53.143H34.7561C36.1978 53.143 37 52.2678 37 51.1499C37 50.4434 36.729 49.8951 36.2412 49.5787H36.8482V48.2183H31.4282V49.5787Z" fill="black"/>
<path d="M29 41.2147C29 42.8808 29.7696 43.6928 31.2656 43.6928H31.4282V45.2535H31.374C30.6369 45.2535 30.3984 44.8423 30.4526 44.1357H29.1084C29 45.8124 29.878 46.6139 31.374 46.6139H31.4282V47.3731H32.7724V46.6139H36.8482V45.2535H32.7724V43.6928H36.8482V42.3325H32.7724V41.4467H31.4282V42.3325H31.2656C30.5285 42.3325 30.2249 41.9107 30.2249 41.2147C30.2249 41.0776 30.2249 40.9299 30.2358 40.7823H36.8482V39.4219H29.2276C29.1084 39.9914 29 40.5398 29 41.2147Z" fill="black"/>
<path d="M34.7127 37.0283V33.0527C34.5285 33.0211 34.3442 33 34.1382 33C32.5447 33 31.2764 34.1073 31.2764 35.668C31.2764 37.3236 32.523 38.4519 34.1382 38.4519C35.7534 38.4519 37 37.3341 37 35.5625C37 34.5502 36.5772 33.7593 35.8401 33.2636L35.1897 34.3603C35.5041 34.5923 35.7317 35.0142 35.7317 35.5414C35.7317 36.2585 35.4282 36.8385 34.7127 37.0283ZM33.6287 37.0494C32.935 36.8912 32.5339 36.3956 32.5339 35.668C32.5339 35.0985 32.8482 34.5291 33.6287 34.3603V37.0494Z" fill="black"/>
<path d="M30.4791 25.4579L30.479 25.4578C30.5502 25.4326 30.6257 25.4218 30.7011 25.4258C30.7765 25.4298 30.8504 25.4486 30.9185 25.4812C30.9867 25.5138 31.0477 25.5594 31.0982 25.6156C31.1487 25.6718 31.1876 25.7373 31.2127 25.8085M30.4791 25.4579L31.142 25.8335M30.4791 25.4579C30.408 25.4831 30.3426 25.522 30.2866 25.5723C30.2304 25.6228 30.1848 25.6838 30.1522 25.752C30.1196 25.8201 30.1008 25.894 30.0968 25.9694C30.0928 26.0448 30.1036 26.1203 30.1288 26.1915L30.1288 26.1915C30.3313 26.7638 30.6761 27.275 31.1308 27.6772C31.5854 28.0793 32.135 28.3591 32.7277 28.4902C33.3203 28.6213 33.9366 28.5994 34.5185 28.4265C35.043 28.2706 35.524 27.9967 35.925 27.6267M30.4791 25.4579L30.4919 25.5331C30.4349 25.555 30.3822 25.5872 30.3367 25.6281C30.2879 25.672 30.2482 25.7251 30.2199 25.7843C30.1915 25.8436 30.1752 25.9078 30.1717 25.9734C30.1682 26.039 30.1776 26.1046 30.1995 26.1665L36 27.4495C35.9754 27.4746 35.9503 27.4994 35.925 27.5237V27.6267M30.4791 25.4579C30.4791 25.4579 30.4791 25.4579 30.4791 25.4579C30.4792 25.4579 30.4794 25.4578 30.4795 25.4578L30.504 25.5271L30.4791 25.4579ZM31.2127 25.8085L31.142 25.8335M31.2127 25.8085C31.2127 25.8085 31.2127 25.8085 31.2127 25.8085L31.142 25.8335M31.2127 25.8085C31.3591 26.2223 31.6151 26.5886 31.9532 26.8684C32.2914 27.1482 32.6992 27.3311 33.1331 27.3974C33.5669 27.4638 34.0107 27.4112 34.4171 27.2452C34.7759 27.0987 35.0936 26.8686 35.3444 26.575M31.142 25.8335C31.2929 26.2601 31.5568 26.6377 31.9054 26.9262C32.254 27.2147 32.6744 27.4032 33.1217 27.4716C33.569 27.54 34.0265 27.4857 34.4454 27.3146C34.8349 27.1555 35.1775 26.901 35.442 26.575H35.3444M35.3444 26.575C35.3654 26.5504 35.3859 26.5254 35.4059 26.5H35.5005L36 27.5555C35.9753 27.5796 35.9503 27.6034 35.925 27.6267M35.3444 26.575H34C33.8475 26.575 33.7012 26.5144 33.5934 26.4066C33.4856 26.2988 33.425 26.1525 33.425 26C33.425 25.8475 33.4856 25.7012 33.5934 25.5934C33.7012 25.4856 33.8475 25.425 34 25.425H36.5C36.6525 25.425 36.7988 25.4856 36.9066 25.5934C37.0144 25.7012 37.075 25.8475 37.075 26V28.5C37.075 28.6525 37.0144 28.7988 36.9066 28.9066C36.7988 29.0144 36.6525 29.075 36.5 29.075C36.3475 29.075 36.2012 29.0144 36.0934 28.9066C35.9856 28.7988 35.925 28.6525 35.925 28.5V27.6267M36.8709 23.8075C36.6683 23.2357 36.3236 22.7248 35.8692 22.3228C35.4146 21.9207 34.865 21.6409 34.2723 21.5098C33.6797 21.3787 33.0634 21.4006 32.4815 21.5735C31.957 21.7294 31.476 22.0033 31.075 22.3733V21.5C31.075 21.3475 31.0144 21.2012 30.9066 21.0934C30.7988 20.9856 30.6525 20.925 30.5 20.925L36.8005 23.8335M36.8709 23.8075C36.871 23.8078 36.8711 23.8082 36.8712 23.8085L36.8005 23.8335M36.8709 23.8075C36.8707 23.8072 36.8706 23.8069 36.8705 23.8065L36.8005 23.8335M36.8709 23.8075C36.8983 23.879 36.9111 23.9552 36.9087 24.0317C36.9062 24.1085 36.8884 24.1841 36.8562 24.2539C36.8241 24.3237 36.7782 24.3864 36.7214 24.4382C36.6646 24.49 36.598 24.5299 36.5255 24.5555C36.453 24.5811 36.3761 24.592 36.2994 24.5873C36.2227 24.5827 36.1476 24.5627 36.0787 24.5286C36.0098 24.4945 35.9485 24.4469 35.8983 24.3886C35.8484 24.3307 35.8105 24.2633 35.7869 24.1905M36.8005 23.8335C36.8246 23.8959 36.8358 23.9624 36.8337 24.0293C36.8316 24.0961 36.8161 24.1618 36.7881 24.2225C36.7602 24.2833 36.7203 24.3378 36.6709 24.3828C36.6215 24.4279 36.5636 24.4625 36.5005 24.4848C36.4375 24.5071 36.3706 24.5165 36.3039 24.5125C36.2372 24.5084 36.1719 24.4911 36.112 24.4614C36.0521 24.4317 35.9988 24.3903 35.9551 24.3397C35.9115 24.289 35.8785 24.2301 35.858 24.1665M35.7869 24.1905C35.7871 24.1909 35.7872 24.1912 35.7873 24.1915L35.858 24.1665M35.7869 24.1905C35.7868 24.1902 35.7867 24.1898 35.7866 24.1895L35.858 24.1665M35.7869 24.1905L35.858 24.1665M31.558 23.425C31.5381 23.4496 31.5186 23.4746 31.4995 23.5H31.5941C31.6141 23.4746 31.6346 23.4496 31.6556 23.425H31.558ZM31 22.5505C31.0246 22.5254 31.0497 22.5006 31.075 22.4763L31 22.4445V22.5505Z" fill="black" stroke="black" stroke-width="0.15"/>
<path d="M101.152 123.998V125.55L104.014 123.936C104.415 124.769 105.271 125.342 106.225 125.342C107.612 125.342 108.74 124.259 108.74 122.916V120H101.152V121.437H103.786V122.53L101.152 123.998ZM107.341 121.437V122.916C107.341 123.457 106.854 123.905 106.225 123.905C105.596 123.905 105.098 123.457 105.098 122.916V121.437H107.341Z" fill="black"/>
<path d="M103.287 127.204V131.13C103.472 131.161 103.656 131.182 103.862 131.182C105.455 131.182 106.724 130.088 106.724 128.547C106.724 126.913 105.477 125.798 103.862 125.798C102.247 125.798 101 126.902 101 128.651C101 129.651 101.423 130.432 102.16 130.921L102.81 129.839C102.496 129.609 102.268 129.193 102.268 128.672C102.268 127.964 102.572 127.392 103.287 127.204ZM104.371 127.183C105.065 127.339 105.466 127.829 105.466 128.547C105.466 129.11 105.152 129.672 104.371 129.839V127.183Z" fill="black"/>
<path d="M103.753 132.182V136.087H105.098V132.182H103.753Z" fill="black"/>
<path d="M101 139.816C101 141.367 101.867 142.461 103.287 142.461C104.837 142.461 105.238 141.232 105.618 140.076C105.965 138.972 106.214 138.691 106.68 138.691C107.114 138.691 107.439 139.045 107.439 139.649C107.439 140.389 107.038 140.784 106.463 141.044L107.19 142.252C108.252 141.763 108.892 140.847 108.892 139.649C108.892 138.4 108.068 137.254 106.637 137.254C105.195 137.254 104.707 138.337 104.371 139.451C104.046 140.534 103.829 141.024 103.266 141.024C102.843 141.024 102.463 140.722 102.463 139.857C102.463 138.952 102.919 138.441 103.623 138.181L102.875 136.952C101.748 137.348 101 138.327 101 139.816Z" fill="black"/>
<path d="M106.724 146.23C106.724 145.532 106.453 144.991 105.965 144.679H108.74V143.335H101.152V144.679H104.079C105.022 144.679 105.423 145.168 105.423 145.824C105.423 146.428 105.043 146.855 104.306 146.855H101.152V148.198H104.48C105.921 148.198 106.724 147.334 106.724 146.23Z" fill="black"/>
<path d="M106.572 152.781H103.645C102.702 152.781 102.301 152.292 102.301 151.636C102.301 151.032 102.68 150.605 103.417 150.605H106.572V149.262H103.244C101.802 149.262 101 150.126 101 151.23C101 151.927 101.271 152.469 101.759 152.781H101.152V154.124H106.572V152.781Z" fill="black"/>
<path d="M109 161.04C109 159.395 108.23 158.593 106.734 158.593H106.572V157.052H106.626C107.363 157.052 107.602 157.458 107.547 158.156H108.892C109 156.5 108.122 155.709 106.626 155.709H106.572V154.959H105.228V155.709H101.152V157.052H105.228V158.593H101.152V159.936H105.228V160.811H106.572V159.936H106.734C107.472 159.936 107.775 160.353 107.775 161.04C107.775 161.175 107.775 161.321 107.764 161.467H101.152V162.81H108.772C108.892 162.248 109 161.706 109 161.04Z" fill="black"/>
<path d="M103.287 165.173V169.099C103.472 169.13 103.656 169.151 103.862 169.151C105.455 169.151 106.724 168.058 106.724 166.517C106.724 164.882 105.477 163.768 103.862 163.768C102.247 163.768 101 164.872 101 166.621C101 167.62 101.423 168.401 102.16 168.891L102.81 167.808C102.496 167.579 102.268 167.162 102.268 166.642C102.268 165.934 102.572 165.361 103.287 165.173ZM104.371 165.153C105.065 165.309 105.466 165.798 105.466 166.517C105.466 167.079 105.152 167.641 104.371 167.808V165.153Z" fill="black"/>
<path d="M107.521 176.599L107.521 176.599C107.45 176.624 107.374 176.635 107.299 176.631C107.224 176.627 107.15 176.608 107.082 176.576C107.014 176.544 106.953 176.499 106.902 176.443C106.852 176.388 106.813 176.323 106.787 176.253M107.521 176.599C107.521 176.599 107.521 176.599 107.521 176.599C107.52 176.599 107.52 176.599 107.52 176.599L107.496 176.53V176.604H107.496L107.484 176.533C107.425 176.551 107.364 176.559 107.303 176.556C107.237 176.553 107.173 176.536 107.114 176.508C107.055 176.48 107.001 176.441 106.958 176.393C106.914 176.345 106.88 176.288 106.858 176.227C106.707 175.806 106.443 175.433 106.095 175.148C105.746 174.864 105.326 174.677 104.878 174.61C104.431 174.542 103.973 174.596 103.555 174.765C103.165 174.922 102.823 175.173 102.559 175.494H102.657M107.521 176.599C107.592 176.574 107.657 176.536 107.713 176.486C107.769 176.436 107.815 176.376 107.848 176.309C107.88 176.241 107.899 176.168 107.903 176.093C107.907 176.019 107.896 175.944 107.871 175.873L107.871 175.873C107.669 175.308 107.324 174.803 106.869 174.406C106.414 174.009 105.865 173.733 105.272 173.603C104.68 173.474 104.063 173.495 103.482 173.666C102.957 173.82 102.476 174.09 102.075 174.456V173.594C102.075 173.443 102.014 173.299 101.906 173.192C101.798 173.085 101.652 173.026 101.5 173.026C101.348 173.026 101.202 173.085 101.094 173.192C100.986 173.299 100.925 173.443 100.925 173.594V176.063C100.925 176.214 100.986 176.359 101.094 176.465C101.202 176.572 101.348 176.632 101.5 176.632H104C104.152 176.632 104.298 176.572 104.406 176.465C104.514 176.359 104.575 176.214 104.575 176.063C104.575 175.912 104.514 175.767 104.406 175.66C104.298 175.554 104.152 175.494 104 175.494H102.657M107.521 176.599L102 174.526V173.594C102 173.463 101.947 173.338 101.854 173.245C101.76 173.153 101.633 173.101 101.5 173.101C101.367 173.101 101.24 173.153 101.146 173.245C101.053 173.338 101 173.463 101 173.594V176.063C101 176.194 101.053 176.319 101.146 176.412C101.24 176.505 101.367 176.557 101.5 176.557H104C104.133 176.557 104.26 176.505 104.354 176.412C104.447 176.319 104.5 176.194 104.5 176.063C104.5 175.932 104.447 175.806 104.354 175.714C104.26 175.621 104.133 175.569 104 175.569H102.595C102.615 175.544 102.636 175.519 102.657 175.494M106.787 176.253L106.858 176.227L106.787 176.253C106.787 176.253 106.787 176.253 106.787 176.253ZM106.787 176.253C106.641 175.844 106.385 175.483 106.047 175.206C105.709 174.93 105.301 174.75 104.867 174.684C104.433 174.619 103.989 174.671 103.583 174.834C103.225 174.979 102.907 175.205 102.657 175.494M102.075 174.558C102.477 174.177 102.967 173.895 103.503 173.738C104.073 173.571 104.676 173.55 105.256 173.676C105.836 173.803 106.374 174.074 106.82 174.462C107.265 174.851 107.602 175.345 107.801 175.899C107.822 175.96 107.832 176.024 107.828 176.089C107.825 176.154 107.808 176.217 107.78 176.276C107.752 176.334 107.712 176.387 107.663 176.43C107.618 176.471 107.565 176.502 107.508 176.524L102.075 174.558ZM107.094 180.909C107.202 181.015 107.348 181.075 107.5 181.075C107.652 181.075 107.798 181.015 107.906 180.909C108.014 180.802 108.075 180.657 108.075 180.506V178.038C108.075 177.887 108.014 177.742 107.906 177.635C107.798 177.529 107.652 177.469 107.5 177.469H105C104.848 177.469 104.702 177.529 104.594 177.635C104.486 177.742 104.425 177.887 104.425 178.038C104.425 178.189 104.486 178.334 104.594 178.44C104.702 178.547 104.848 178.606 105 178.606H106.343C106.093 178.895 105.775 179.122 105.417 179.266C105.011 179.43 104.567 179.482 104.133 179.417C103.699 179.351 103.291 179.171 102.953 178.894C102.615 178.618 102.359 178.257 102.213 177.849C102.189 177.777 102.151 177.71 102.101 177.653C102.051 177.595 101.99 177.548 101.921 177.515C101.852 177.481 101.777 177.461 101.701 177.457C101.624 177.452 101.547 177.463 101.475 177.488C101.402 177.514 101.336 177.553 101.279 177.604C101.222 177.655 101.176 177.717 101.144 177.786C101.112 177.855 101.094 177.93 101.091 178.006C101.089 178.082 101.102 178.158 101.129 178.228C101.332 178.793 101.677 179.298 102.131 179.695C102.586 180.092 103.135 180.368 103.728 180.498C104.32 180.627 104.937 180.605 105.518 180.435C106.043 180.281 106.524 180.01 106.925 179.645V180.506C106.925 180.657 106.986 180.802 107.094 180.909Z" fill="black" stroke="black" stroke-width="0.15"/>
<path d="M9 1.5H129V0.5H9V1.5ZM136.5 9V193H137.5V9H136.5ZM129 200.5H9V201.5H129V200.5ZM1.5 193V9H0.5V193H1.5ZM9 200.5C4.85786 200.5 1.5 197.142 1.5 193H0.5C0.5 197.694 4.30558 201.5 9 201.5V200.5ZM136.5 193C136.5 197.142 133.142 200.5 129 200.5V201.5C133.694 201.5 137.5 197.694 137.5 193H136.5ZM129 1.5C133.142 1.5 136.5 4.85786 136.5 9H137.5C137.5 4.30558 133.694 0.5 129 0.5V1.5ZM9 0.5C4.30558 0.5 0.5 4.30558 0.5 9H1.5C1.5 4.85787 4.85786 1.5 9 1.5V0.5Z" fill="#D2D2D2"/>
</svg>
