<svg width="138" height="202" viewBox="0 0 138 202" fill="none" xmlns="http://www.w3.org/2000/svg">
<path d="M1 9C1 4.58173 4.58172 1 9 1H129C133.418 1 137 4.58172 137 9V193C137 197.418 133.418 201 129 201H9C4.58172 201 1 197.418 1 193V9Z" fill="white"/>
<rect x="17" y="17" width="104" height="168" rx="8" fill="#047BFD"/>
<circle cx="69" cy="101" r="36" fill="black"/>
<path d="M73.5102 96.704L80.8462 87.184V80.8H56.2062V88.024H71.5502L63.8222 98.104L66.7902 102.584H68.4702C72.5022 102.584 74.7422 104.768 74.7422 107.904C74.7422 111.096 72.5022 113.224 68.4702 113.224C64.7742 113.224 62.5902 111.6 61.6382 108.688L55.0302 112.496C57.2702 118.096 62.5902 120.784 68.4702 120.784C75.8622 120.784 82.4702 116.304 82.4702 107.904C82.4702 102.136 78.6062 98.216 73.5102 96.704Z" fill="white"/>
<path d="M9 1.5H129V0.5H9V1.5ZM136.5 9V193H137.5V9H136.5ZM129 200.5H9V201.5H129V200.5ZM1.5 193V9H0.5V193H1.5ZM9 200.5C4.85786 200.5 1.5 197.142 1.5 193H0.5C0.5 197.694 4.30558 201.5 9 201.5V200.5ZM136.5 193C136.5 197.142 133.142 200.5 129 200.5V201.5C133.694 201.5 137.5 197.694 137.5 193H136.5ZM129 1.5C133.142 1.5 136.5 4.85786 136.5 9H137.5C137.5 4.30558 133.694 0.5 129 0.5V1.5ZM9 0.5C4.30558 0.5 0.5 4.30558 0.5 9H1.5C1.5 4.85787 4.85786 1.5 9 1.5V0.5Z" fill="#D2D2D2"/>
</svg>
