<svg width="138" height="202" viewBox="0 0 138 202" fill="none" xmlns="http://www.w3.org/2000/svg">
<path d="M1 9C1 4.58173 4.58172 1 9 1H129C133.418 1 137 4.58172 137 9V193C137 197.418 133.418 201 129 201H9C4.58172 201 1 197.418 1 193V9Z" fill="white"/>
<path fill-rule="evenodd" clip-rule="evenodd" d="M49 17H113C117.418 17 121 20.5817 121 25V101H89V185H25C20.5817 185 17 181.418 17 177V101H49V17Z" fill="#707070"/>
<circle cx="69" cy="101" r="36" fill="black"/>
<path d="M26.8 76.302V84.542H28.912V81.534H38V79.326H28.912V76.302H26.8Z" fill="black"/>
<path d="M31.376 74.117H30V76.181H38V74.117H34.176C32.496 74.117 32.016 72.757 32.144 71.685H29.84C29.84 72.693 30.288 73.701 31.376 74.117Z" fill="black"/>
<path d="M30 64.6947H30.944C30.224 65.2707 29.776 66.1347 29.776 67.3027C29.776 69.4307 31.616 71.1907 34 71.1907C36.384 71.1907 38.224 69.4307 38.224 67.3027C38.224 66.1347 37.776 65.2707 37.056 64.6947H38V62.6307H30V64.6947ZM36.256 66.9187C36.256 68.1827 35.344 69.1267 34 69.1267C32.656 69.1267 31.744 68.1827 31.744 66.9187C31.744 65.6387 32.656 64.6947 34 64.6947C35.344 64.6947 36.256 65.6387 36.256 66.9187Z" fill="black"/>
<path d="M29.776 56.3111C29.776 57.3831 30.176 58.2151 30.896 58.6951H30V60.7591H38V58.6951H33.68C32.288 58.6951 31.696 57.9431 31.696 56.9351C31.696 56.0071 32.256 55.3511 33.344 55.3511H38V53.2871H33.088C30.96 53.2871 29.776 54.6151 29.776 56.3111Z" fill="black"/>
<path d="M32.272 49.6207C31.84 49.6207 31.616 49.2047 31.616 48.6927C31.616 48.1007 31.92 47.6527 32.432 47.4127L31.472 45.6527C30.368 46.2767 29.776 47.3967 29.776 48.6927C29.776 50.3407 30.688 51.7327 32.32 51.7327C35.136 51.7327 34.496 47.6047 35.664 47.6047C36.128 47.6047 36.352 48.0527 36.352 48.7087C36.352 49.5087 35.968 50.0527 35.312 50.2767L36.32 52.0687C37.552 51.4927 38.224 50.3087 38.224 48.7087C38.224 46.9967 37.392 45.4927 35.664 45.4927C32.72 45.4927 33.456 49.6207 32.272 49.6207Z" fill="black"/>
<path d="M28.56 39.9551H26.576C26.416 42.4991 27.712 43.7151 29.92 43.7151H30V44.8671H31.984V43.7151H38V41.6511H31.984V39.9551H30V41.6511H29.92C28.832 41.6511 28.48 41.0271 28.56 39.9551Z" fill="black"/>
<path d="M34.848 37.562V31.53C34.576 31.482 34.304 31.45 34 31.45C31.648 31.45 29.776 33.13 29.776 35.498C29.776 38.01 31.616 39.722 34 39.722C36.384 39.722 38.224 38.026 38.224 35.338C38.224 33.802 37.6 32.602 36.512 31.85L35.552 33.514C36.016 33.866 36.352 34.506 36.352 35.306C36.352 36.394 35.904 37.274 34.848 37.562ZM33.248 37.594C32.224 37.354 31.632 36.602 31.632 35.498C31.632 34.634 32.096 33.77 33.248 33.514V37.594Z" fill="black"/>
<path d="M31.376 27.9451H30V30.0091H38V27.9451H34.176C32.496 27.9451 32.016 26.5851 32.144 25.5131H29.84C29.84 26.5211 30.288 27.5291 31.376 27.9451Z" fill="black"/>
<path d="M111.2 125.698V117.458H109.088V120.466H100V122.674H109.088V125.698H111.2Z" fill="black"/>
<path d="M106.624 127.883H108V125.819H100V127.883H103.824C105.504 127.883 105.984 129.243 105.856 130.315H108.16C108.16 129.307 107.712 128.299 106.624 127.883Z" fill="black"/>
<path d="M108 137.305H107.056C107.776 136.729 108.224 135.865 108.224 134.697C108.224 132.569 106.384 130.809 104 130.809C101.616 130.809 99.776 132.569 99.776 134.697C99.776 135.865 100.224 136.729 100.944 137.305H100V139.369H108V137.305ZM101.744 135.081C101.744 133.817 102.656 132.873 104 132.873C105.344 132.873 106.256 133.817 106.256 135.081C106.256 136.361 105.344 137.305 104 137.305C102.656 137.305 101.744 136.361 101.744 135.081Z" fill="black"/>
<path d="M108.224 145.689C108.224 144.617 107.824 143.785 107.104 143.305H108V141.241H100V143.305H104.32C105.712 143.305 106.304 144.057 106.304 145.065C106.304 145.993 105.744 146.649 104.656 146.649H100V148.713H104.912C107.04 148.713 108.224 147.385 108.224 145.689Z" fill="black"/>
<path d="M105.728 152.379C106.16 152.379 106.384 152.795 106.384 153.307C106.384 153.899 106.08 154.347 105.568 154.587L106.528 156.347C107.632 155.723 108.224 154.603 108.224 153.307C108.224 151.659 107.312 150.267 105.68 150.267C102.864 150.267 103.504 154.395 102.336 154.395C101.872 154.395 101.648 153.947 101.648 153.291C101.648 152.491 102.032 151.947 102.688 151.723L101.68 149.931C100.448 150.507 99.776 151.691 99.776 153.291C99.776 155.003 100.608 156.507 102.336 156.507C105.28 156.507 104.544 152.379 105.728 152.379Z" fill="black"/>
<path d="M109.44 162.045H111.424C111.584 159.501 110.288 158.285 108.08 158.285H108V157.133H106.016V158.285H100V160.349H106.016V162.045H108V160.349H108.08C109.168 160.349 109.52 160.973 109.44 162.045Z" fill="black"/>
<path d="M103.152 164.438V170.47C103.424 170.518 103.696 170.55 104 170.55C106.352 170.55 108.224 168.87 108.224 166.502C108.224 163.99 106.384 162.278 104 162.278C101.616 162.278 99.776 163.974 99.776 166.662C99.776 168.198 100.4 169.398 101.488 170.15L102.448 168.486C101.984 168.134 101.648 167.494 101.648 166.694C101.648 165.606 102.096 164.726 103.152 164.438ZM104.752 164.406C105.776 164.646 106.368 165.398 106.368 166.502C106.368 167.366 105.904 168.23 104.752 168.486V164.406Z" fill="black"/>
<path d="M106.624 174.055H108V171.991H100V174.055H103.824C105.504 174.055 105.984 175.415 105.856 176.487H108.16C108.16 175.479 107.712 174.471 106.624 174.055Z" fill="black"/>
<path d="M72.4039 116.136L84.187 104.33L90.9045 111.062C92.2463 112.405 93 114.225 93 116.124C93 118.022 92.2463 119.842 90.9045 121.185L89.245 122.844C88.5814 123.511 87.7926 124.039 86.9241 124.4C86.0556 124.761 85.1244 124.947 84.1839 124.947C83.2435 124.947 82.3123 124.761 81.4438 124.4C80.5753 124.039 79.7865 123.511 79.1229 122.844L72.4039 116.136ZM90.8879 80.7551L89.221 79.0956C87.8784 77.7538 86.058 77 84.1599 77C82.2618 77 80.4414 77.7538 79.0988 79.0956L68.9992 89.218L58.8771 79.0956C57.5346 77.7538 55.7142 77 53.8161 77C51.918 77 50.0975 77.7538 48.755 79.0956L47.0955 80.7551C45.7537 82.0977 45 83.9182 45 85.8163C45 87.7145 45.7537 89.535 47.0955 90.8776L57.2177 101L47.0955 111.122C45.7537 112.465 45 114.286 45 116.184C45 118.082 45.7537 119.902 47.0955 121.245L48.755 122.904C50.0975 124.246 51.918 125 53.8161 125C55.7142 125 57.5346 124.246 58.8771 122.904L90.9045 90.8761C92.2463 89.5335 93 87.713 93 85.8148C93 83.9167 92.2463 82.0962 90.9045 80.7536L90.8879 80.7551Z" fill="white"/>
<path d="M9 1.5H129V0.5H9V1.5ZM136.5 9V193H137.5V9H136.5ZM129 200.5H9V201.5H129V200.5ZM1.5 193V9H0.5V193H1.5ZM9 200.5C4.85786 200.5 1.5 197.142 1.5 193H0.5C0.5 197.694 4.30558 201.5 9 201.5V200.5ZM136.5 193C136.5 197.142 133.142 200.5 129 200.5V201.5C133.694 201.5 137.5 197.694 137.5 193H136.5ZM129 1.5C133.142 1.5 136.5 4.85786 136.5 9H137.5C137.5 4.30558 133.694 0.5 129 0.5V1.5ZM9 0.5C4.30558 0.5 0.5 4.30558 0.5 9H1.5C1.5 4.85787 4.85786 1.5 9 1.5V0.5Z" fill="#D2D2D2"/>
</svg>
